<?xml version="1.0" standalone="no"?>
<!DOCTYPE svg PUBLIC "-//W3C//DTD SVG 20010904//EN"
 "http://www.w3.org/TR/2001/REC-SVG-20010904/DTD/svg10.dtd">
<svg version="1.0" xmlns="http://www.w3.org/2000/svg"
 width="310.000000pt" height="310.000000pt" viewBox="0 0 310.000000 310.000000"
 preserveAspectRatio="xMidYMid meet">
<metadata>
Created by potrace 1.11, written by Peter Selinger 2001-2013
</metadata>
<g transform="translate(0.000000,310.000000) scale(0.100000,-0.100000)"
fill="#000000" stroke="none">
<path d="M800 3047 c-14 -6 -88 -41 -165 -77 -77 -37 -196 -93 -265 -125 -141
-66 -153 -75 -144 -98 8 -22 18 -21 90 4 99 34 174 13 189 -55 3 -12 9 -40 14
-63 5 -24 8 -546 7 -1185 -1 -1249 1 -1199 -59 -1258 -16 -16 -44 -32 -61 -36
-17 -5 -34 -9 -38 -10 -5 -1 -21 -2 -38 -3 -24 -1 -30 -5 -30 -24 l0 -23 420
0 c362 0 420 2 425 15 6 16 -11 30 -40 32 -83 3 -134 33 -165 94 -25 49 -25
55 -28 325 l-3 275 35 35 c36 34 36 34 55 15 18 -18 219 -273 351 -445 30 -39
65 -84 78 -98 31 -35 61 -95 58 -113 -10 -58 -34 -77 -107 -86 -42 -5 -49 -9
-49 -27 l0 -22 467 0 c427 1 468 2 471 18 4 21 -3 24 -63 32 -27 4 -84 23
-125 43 -126 60 -247 197 -672 753 -14 19 -56 73 -93 120 l-66 85 38 35 c241
222 373 307 591 380 105 35 121 39 242 55 52 8 96 14 98 14 1 1 2 10 2 21 0
22 -11 23 -165 19 -106 -2 -516 -2 -685 1 -130 2 -135 2 -138 -18 -3 -16 3
-23 25 -28 103 -22 135 -51 136 -123 1 -81 -30 -127 -201 -295 -231 -227 -272
-266 -277 -266 -3 0 -5 468 -5 1040 l0 1039 -22 21 c-24 22 -50 24 -88 7z"/>
<path d="M2555 514 c-48 -17 -100 -66 -123 -114 -25 -52 -22 -173 5 -225 46
-86 116 -127 223 -127 102 0 177 40 217 117 20 40 28 159 14 213 -16 58 -71
117 -128 136 -57 20 -155 20 -208 0z"/>
</g>
</svg>
