<?xml version="1.0" standalone="no"?>
<!DOCTYPE svg PUBLIC "-//W3C//DTD SVG 20010904//EN"
 "http://www.w3.org/TR/2001/REC-SVG-20010904/DTD/svg10.dtd">
<svg version="1.0" xmlns="http://www.w3.org/2000/svg"
 width="2133.000000pt" height="2133.000000pt" viewBox="0 0 2133.000000 2133.000000"
 preserveAspectRatio="xMidYMid meet">
<metadata>
Created by potrace 1.11, written by Peter Selinger 2001-2013
</metadata>
<g transform="translate(0.000000,2133.000000) scale(0.100000,-0.100000)"
fill="#000000" stroke="none">
<path d="M7529 19015 c-2 -2 -29 -6 -59 -9 -123 -14 -293 -81 -421 -166 -89
-59 -4467 -4435 -4543 -4540 -55 -76 -126 -207 -126 -232 0 -8 -4 -18 -9 -23
-5 -6 -16 -41 -26 -79 -9 -38 -20 -79 -23 -90 -3 -12 -7 -1191 -8 -2622 l-2
-2601 2709 0 2709 0 1 41 c0 23 1 1498 1 3279 l0 3237 659 0 659 0 0 -1842 0
-1843 1839 1840 1840 1840 932 1 932 1 -971 -966 c-2272 -2261 -3582 -3569
-3582 -3576 0 -6 1629 -1634 1920 -1919 l95 -93 3484 1 3484 1 0 2540 c0 1397
-4 2576 -8 2619 -15 172 -97 378 -203 511 -27 34 -4262 4273 -4394 4398 -107
102 -106 101 -181 147 -100 60 -222 109 -314 126 -21 4 -47 9 -58 12 -21 6
-6330 13 -6336 7z"/>
<path d="M9050 9680 c-1 -69 -2 -326 -3 -572 -1 -296 1 -449 8 -450 26 -4
1135 -2 1135 2 0 3 -256 262 -570 575 l-570 570 0 -125z"/>
<path d="M2345 7371 c-2 -1 0 -14 5 -27 5 -13 8 -24 6 -24 -3 0 13 -41 35 -90
39 -91 93 -184 129 -223 11 -11 20 -23 20 -27 0 -13 4431 -4434 4485 -4475 80
-60 178 -110 280 -145 47 -16 85 -27 85 -25 0 3 11 0 24 -4 13 -5 54 -13 92
-17 87 -9 6252 -9 6317 0 183 25 309 73 462 174 53 35 617 594 2290 2267 2300
2299 2263 2261 2343 2421 28 56 72 173 72 191 0 5 -1271 8 -2825 8 -1554 0
-2825 -2 -2825 -4 0 -2 282 -285 627 -628 l627 -623 -375 -1 c-206 0 -625 -1
-931 -1 l-557 0 -626 628 -627 629 -1214 0 -1214 0 0 -627 0 -626 -659 0 -659
0 -1 616 c0 340 0 622 -1 627 0 9 -5376 16 -5385 6z"/>
</g>
</svg>
