<?xml version="1.0" standalone="no"?>
<!DOCTYPE svg PUBLIC "-//W3C//DTD SVG 20010904//EN"
 "http://www.w3.org/TR/2001/REC-SVG-20010904/DTD/svg10.dtd">
<svg version="1.0" xmlns="http://www.w3.org/2000/svg"
 width="310.000000pt" height="310.000000pt" viewBox="0 0 310.000000 310.000000"
 preserveAspectRatio="xMidYMid meet">
<metadata>
Created by potrace 1.11, written by Peter Selinger 2001-2013
</metadata>
<g transform="translate(0.000000,310.000000) scale(0.100000,-0.100000)"
fill="#000000" stroke="none">
<path d="M1340 3065 c-420 -63 -781 -279 -1026 -614 -50 -69 -139 -219 -149
-252 -4 -13 -11 -28 -15 -34 -19 -26 -85 -226 -96 -292 -3 -15 -7 -35 -9 -43
-26 -90 -26 -424 -1 -555 37 -192 129 -418 231 -570 66 -97 172 -222 236 -277
30 -26 68 -58 84 -73 88 -77 280 -186 420 -238 187 -70 322 -92 550 -92 161 1
213 7 345 40 486 121 877 459 1061 918 27 67 75 230 83 282 3 22 8 51 12 65 3
14 7 102 9 195 5 273 -39 466 -161 710 -91 183 -199 324 -348 457 -79 70 -243
188 -261 188 -4 0 -19 8 -33 18 -65 45 -269 120 -399 146 -43 9 -89 19 -103
22 -52 12 -347 11 -430 -1z m485 -174 c279 -61 493 -177 690 -375 202 -202
326 -433 380 -708 27 -135 28 -366 2 -508 -37 -203 -138 -429 -263 -588 -68
-86 -232 -239 -316 -295 -257 -170 -500 -240 -808 -232 -359 8 -666 141 -925
400 -198 197 -316 414 -377 690 -17 81 -21 133 -22 275 0 103 5 200 13 235 41
199 114 378 218 534 101 152 295 331 458 423 141 80 349 150 489 164 34 4 63
8 66 11 12 11 314 -8 395 -26z"/>
<path d="M674 2377 c-9 -30 15 -44 85 -50 74 -6 96 -22 108 -82 5 -22 8 -353
8 -735 -1 -585 -4 -700 -16 -725 -17 -35 -61 -54 -131 -54 -42 -1 -48 -4 -54
-25 -3 -14 -4 -29 -1 -33 3 -5 168 -8 367 -8 304 0 362 2 370 14 18 30 -7 51
-59 51 -62 0 -108 16 -124 44 -9 15 -13 116 -15 365 -3 313 -2 345 14 362 9
10 20 19 24 19 5 0 52 -60 106 -132 55 -73 103 -137 107 -143 4 -5 44 -59 89
-120 295 -396 317 -424 368 -450 34 -18 36 -18 302 -15 207 2 219 4 224 37 3
20 -18 30 -75 36 -29 4 -72 18 -97 32 -53 31 -148 140 -268 306 -165 228 -479
654 -498 676 l-20 21 189 189 c103 104 215 207 248 228 125 82 235 128 335
141 30 4 62 8 70 9 9 1 15 13 15 31 l0 29 -368 0 c-390 1 -401 0 -377 -44 8
-15 21 -21 46 -21 46 0 100 -23 113 -49 24 -43 -3 -101 -86 -188 -102 -108
-455 -463 -459 -463 -3 0 -4 141 -2 314 3 300 4 316 24 342 22 30 51 40 124
46 42 3 45 5 45 33 l0 30 -362 0 c-349 1 -363 0 -369 -18z"/>
</g>
</svg>
