<?xml version="1.0" standalone="no"?>
<!DOCTYPE svg PUBLIC "-//W3C//DTD SVG 20010904//EN"
 "http://www.w3.org/TR/2001/REC-SVG-20010904/DTD/svg10.dtd">
<svg version="1.0" xmlns="http://www.w3.org/2000/svg"
 width="310.000000pt" height="310.000000pt" viewBox="0 0 310.000000 310.000000"
 preserveAspectRatio="xMidYMid meet">
<metadata>
Created by potrace 1.11, written by Peter Selinger 2001-2013
</metadata>
<g transform="translate(0.000000,310.000000) scale(0.100000,-0.100000)"
fill="#000000" stroke="none">
<path d="M263 2507 c-10 -16 12 -26 67 -28 69 -3 124 -30 147 -72 17 -30 18
-88 18 -887 0 -844 0 -855 -21 -890 -26 -45 -62 -62 -146 -68 -55 -4 -68 -8
-68 -22 0 -15 31 -17 415 -16 394 0 415 1 415 18 0 15 -9 18 -47 19 -72 1
-104 8 -134 30 -50 35 -53 62 -54 488 l-1 395 35 37 35 38 139 -187 c76 -103
147 -198 157 -212 11 -14 98 -130 194 -259 267 -357 283 -374 381 -374 27 0
152 1 278 2 214 1 227 2 227 20 0 15 -10 19 -60 24 -138 12 -225 93 -479 448
-135 187 -123 171 -218 299 -43 58 -128 173 -188 255 -60 83 -112 152 -115
155 -3 3 -18 22 -34 43 l-29 39 74 75 c370 377 417 418 561 493 90 47 194 88
246 96 20 4 44 8 52 9 8 2 30 4 48 4 23 1 32 6 32 19 0 16 -27 17 -420 17
-231 0 -420 -4 -420 -8 0 -4 0 -11 0 -16 0 -4 22 -11 50 -14 101 -12 151 -55
146 -127 -5 -74 -39 -113 -529 -607 -83 -84 -153 -153 -157 -153 -3 0 -6 172
-5 383 1 357 2 385 20 422 26 52 88 85 162 85 44 0 53 3 53 18 0 16 -26 17
-411 17 -226 0 -413 -3 -416 -8z"/>
<path d="M2543 859 c-82 -15 -134 -77 -138 -164 -4 -73 11 -117 50 -155 60
-58 158 -70 241 -30 56 28 86 87 86 170 0 133 -96 205 -239 179z"/>
</g>
</svg>
