<?xml version="1.0" standalone="no"?>
<!DOCTYPE svg PUBLIC "-//W3C//DTD SVG 20010904//EN"
 "http://www.w3.org/TR/2001/REC-SVG-20010904/DTD/svg10.dtd">
<svg version="1.0" xmlns="http://www.w3.org/2000/svg"
 width="2133.000000pt" height="2133.000000pt" viewBox="0 0 2133.000000 2133.000000"
 preserveAspectRatio="xMidYMid meet">
<metadata>
Created by potrace 1.11, written by Peter Selinger 2001-2013
</metadata>
<g transform="translate(0.000000,2133.000000) scale(0.100000,-0.100000)"
fill="#000000" stroke="none">
<path d="M6219 17250 c0 -8 -1 -2244 -1 -4967 l-1 -4953 -3004 0 -3003 0 -1
-37 c-3 -243 0 -1896 5 -1900 3 -3 1355 -7 3003 -7 l2998 -1 1 -943 c0 -518 4
-945 7 -949 5 -5 1883 -9 1980 -4 16 1 17 53 17 949 l0 949 1835 0 1834 0 952
-953 953 -953 1410 3 c776 2 1412 4 1413 5 1 0 -426 428 -949 949 l-951 949
3197 0 c1758 0 3200 3 3204 7 4 4 7 442 7 972 l0 964 -4180 0 -4180 1 -1522
1519 c-838 836 -1523 1523 -1523 1527 0 3 400 405 890 892 489 487 1698 1692
2686 2676 988 985 2141 2133 2562 2553 422 419 762 762 757 763 -6 0 -643 0
-1417 1 l-1408 0 -2782 -2787 -2783 -2787 -5 2789 -5 2788 -997 0 c-881 0
-998 -2 -999 -15z m3721 -9912 c0 -2 -389 -5 -863 -6 l-864 -3 3 718 c2 395 3
786 4 868 l0 150 860 -862 c473 -474 860 -863 860 -865z"/>
</g>
</svg>
