<svg width="107" height="107" xmlns="http://www.w3.org/2000/svg" fill="none">

 <g>
  <title>Layer 1</title>
  <path id="svg_1" fill="#05051B" d="m53.5,0c-10.5813,0 -20.925,3.13772 -29.723,9.01637c-8.798,5.87863 -15.65524,14.23423 -19.70453,24.01003c-4.04929,9.7759 -5.10877,20.5329 -3.04446,30.9109c2.06431,10.378 7.15969,19.9108 14.64179,27.3929c7.4821,7.4821 17.0149,12.5778 27.3929,14.6418c10.378,2.064 21.135,1.005 30.9109,-3.044c9.7758,-4.0498 18.1314,-10.907 24.01,-19.705c5.8784,-8.798 9.0164,-19.1417 9.0164,-29.723c0,-14.1891 -5.637,-27.797 -15.6698,-37.8302c-10.0332,-10.03321 -23.6411,-15.6698 -37.8302,-15.6698zm0,98.7692c-8.9534,0 -17.7057,-2.655 -25.1502,-7.6292c-7.4445,-4.9743 -13.2468,-12.0444 -16.6731,-20.3162c-3.42632,-8.2719 -4.3228,-17.374 -2.57607,-26.1554c1.74667,-8.7814 6.05817,-16.8476 12.38917,-23.1786c6.3311,-6.331 14.3973,-10.6425 23.1786,-12.3892c8.7814,-1.74672 17.8835,-0.85024 26.1554,2.5761c8.2719,3.4263 15.3419,9.2286 20.3162,16.6731c4.9742,7.4444 7.6292,16.1968 7.6292,25.1502c0,12.0061 -4.7694,23.5205 -13.259,32.0102c-8.4896,8.4896 -20.004,13.259 -32.0102,13.259z"/>
  <path id="svg_2" fill="#05051B" d="m32.0611,52.4298c0.3825,0.3858 0.8377,0.6919 1.3392,0.9009c0.5015,0.2089 1.0394,0.3165 1.5827,0.3165c0.5433,0 1.0812,-0.1076 1.5827,-0.3165c0.5015,-0.209 0.9566,-0.5151 1.3392,-0.9009l9.6712,-9.6711c1.8172,-1.8433 2.9254,-4.2689 3.1291,-6.8494c0.2038,-2.5804 -0.51,-5.1499 -2.0154,-7.2555c-1.5055,-2.1057 -3.7059,-3.6123 -6.2135,-4.2542c-2.5076,-0.6419 -5.1613,-0.378 -7.4933,0.7452c-2.3356,-1.1925 -5.0218,-1.507 -7.5697,-0.8862c-2.5479,0.6209 -4.7883,2.1358 -6.3135,4.2691c-1.5252,2.1333 -2.2339,4.7433 -1.9971,7.355c0.2367,2.6118 1.4032,5.0517 3.2872,6.876l9.6712,9.6711zm-3.8685,-19.5069c0.2498,-0.2614 0.5499,-0.4695 0.8824,-0.6117c0.3324,-0.1422 0.6903,-0.2155 1.0518,-0.2155c0.3616,0 0.7194,0.0733 1.0519,0.2155c0.3324,0.1422 0.6326,0.3503 0.8824,0.6117c0.3825,0.3857 0.8377,0.6919 1.3392,0.9008c0.5015,0.209 1.0394,0.3165 1.5827,0.3165c0.5433,0 1.0812,-0.1075 1.5827,-0.3165c0.5015,-0.2089 0.9566,-0.5151 1.3392,-0.9008c0.2527,-0.2563 0.5538,-0.4598 0.8859,-0.5988c0.332,-0.1389 0.6884,-0.2104 1.0483,-0.2104c0.36,0 0.7163,0.0715 1.0484,0.2104c0.332,0.139 0.6332,0.3425 0.8859,0.5988c0.2614,0.2498 0.4695,0.55 0.6117,0.8824c0.1422,0.3325 0.2155,0.6903 0.2155,1.0518c0,0.3616 -0.0733,0.7194 -0.2155,1.0519c-0.1422,0.3324 -0.3503,0.6326 -0.6117,0.8824l-6.7904,6.9138l-6.7904,-6.6669c-0.2614,-0.2498 -0.4695,-0.5499 -0.6117,-0.8824c-0.1422,-0.3324 -0.2155,-0.6903 -0.2155,-1.0518c0,-0.3616 0.0733,-0.7194 0.2155,-1.0519c0.1422,-0.3324 0.3503,-0.6326 0.6117,-0.8824l0,-0.2469z"/>
  <path id="svg_3" fill="#05051B" d="m69.0996,52.4298c0.3825,0.3858 0.8377,0.6919 1.3392,0.9009c0.5015,0.2089 1.0394,0.3165 1.5827,0.3165c0.5433,0 1.0812,-0.1076 1.5827,-0.3165c0.5015,-0.209 0.9566,-0.5151 1.3392,-0.9009l9.6711,-9.6711c1.8173,-1.8433 2.9255,-4.2689 3.1292,-6.8494c0.2038,-2.5804 -0.51,-5.1499 -2.0154,-7.2555c-1.5055,-2.1057 -3.7059,-3.6123 -6.2135,-4.2542c-2.5076,-0.6419 -5.1613,-0.378 -7.4933,0.7452c-2.3356,-1.1925 -5.0218,-1.507 -7.5697,-0.8862c-2.5479,0.6209 -4.7883,2.1358 -6.3135,4.2691c-1.5252,2.1333 -2.2339,4.7433 -1.9971,7.355c0.2367,2.6118 1.4032,5.0517 3.2872,6.876l9.6712,9.6711zm-3.8685,-19.5069c0.2498,-0.2614 0.5499,-0.4695 0.8824,-0.6117c0.3324,-0.1422 0.6902,-0.2155 1.0518,-0.2155c0.3616,0 0.7194,0.0733 1.0519,0.2155c0.3324,0.1422 0.6326,0.3503 0.8824,0.6117c0.3825,0.3857 0.8377,0.6919 1.3392,0.9008c0.5015,0.209 1.0394,0.3165 1.5827,0.3165c0.5433,0 1.0812,-0.1075 1.5827,-0.3165c0.5015,-0.2089 0.9566,-0.5151 1.3392,-0.9008c0.2527,-0.2563 0.5538,-0.4598 0.8859,-0.5988c0.332,-0.1389 0.6884,-0.2104 1.0483,-0.2104c0.36,0 0.7163,0.0715 1.0484,0.2104c0.332,0.139 0.6332,0.3425 0.8859,0.5988c0.2614,0.2498 0.4695,0.55 0.6117,0.8824c0.1421,0.3325 0.2155,0.6903 0.2155,1.0518c0,0.3616 -0.0734,0.7194 -0.2155,1.0519c-0.1422,0.3324 -0.3503,0.6326 -0.6117,0.8824l-6.7904,6.9138l-6.7904,-6.6669c-0.2615,-0.2498 -0.4696,-0.5499 -0.6117,-0.8824c-0.1422,-0.3324 -0.2155,-0.6903 -0.2155,-1.0518c0,-0.3616 0.0733,-0.7194 0.2155,-1.0519c0.1421,-0.3324 0.3502,-0.6326 0.6117,-0.8824l0,-0.2469z"/>
  <path id="svg_4" fill="#05051B" d="m82.3075,57.6155c-1.0915,0 -2.1382,0.4336 -2.91,1.2054c-0.7718,0.7718 -1.2054,1.8185 -1.2054,2.91c0,11.3585 -11.0704,20.5769 -24.6923,20.5769c-13.6219,0 -24.6923,-9.2184 -24.6923,-20.5769c0,-1.0915 -0.4336,-2.1382 -1.2053,-2.91c-0.7718,-0.7718 -1.8186,-1.2054 -2.9101,-1.2054c-1.0914,0 -2.1382,0.4336 -2.91,1.2054c-0.7718,0.7718 -1.2053,1.8185 -1.2053,2.91c0,15.8854 14.7742,28.8077 32.923,28.8077c18.1489,0 32.9231,-12.9223 32.9231,-28.8077c0,-1.0915 -0.4336,-2.1382 -1.2054,-2.91c-0.7718,-0.7718 -1.8185,-1.2054 -2.91,-1.2054z"/>
 </g>
</svg>