<svg xmlns="http://www.w3.org/2000/svg" viewBox="0 0 100 100"><title>Bullet point 4</title><path d="M56.4 54.4h6.3v3c0 0.3-0.1 0.6-0.3 0.8s-0.5 0.3-0.9 0.3h-5.2v10.9h-4.6V58.4H33.4c-0.4 0-0.7-0.1-1-0.3 -0.3-0.2-0.5-0.5-0.5-0.8l-0.5-2.6 20.2-26.8h4.8V54.4zM51.8 37.2c0-0.5 0-1 0-1.6 0-0.6 0.1-1.2 0.2-1.8L36.9 54.4h14.9V37.2z"/><title>Bullet point 4</title><path d="M50 100C22.4 100 0 77.6 0 50S22.4 0 50 0s50 22.4 50 50S77.6 100 50 100zM50 4.6C25 4.6 4.6 25 4.6 50S25 95.4 50 95.4 95.4 75 95.4 50 75 4.6 50 4.6z"/></svg>
