<svg xmlns="http://www.w3.org/2000/svg" viewBox="0 0 100 100"><title>Bullet point 2</title><path d="M50.4 27.3c1.7 0 3.2 0.2 4.7 0.7 1.4 0.5 2.7 1.2 3.7 2.2s1.9 2.1 2.5 3.4c0.6 1.4 0.9 2.9 0.9 4.6 0 1.5-0.2 2.8-0.7 4.1 -0.4 1.2-1 2.4-1.8 3.6 -0.8 1.1-1.6 2.3-2.6 3.3 -1 1.1-2 2.2-3.1 3.3L43.7 63.1c0.7-0.2 1.5-0.4 2.2-0.5 0.8-0.1 1.5-0.2 2.2-0.2h13.2c0.5 0 1 0.2 1.3 0.5 0.3 0.3 0.5 0.7 0.5 1.2v3H36.7v-1.7c0-0.3 0.1-0.7 0.2-1.1 0.1-0.4 0.4-0.7 0.7-1l12.6-12.7c1-1.1 2-2.1 2.9-3.1 0.9-1 1.6-2 2.2-2.9 0.6-1 1.1-2 1.4-3 0.3-1 0.5-2.1 0.5-3.3 0-1.2-0.2-2.2-0.5-3 -0.4-0.9-0.9-1.6-1.5-2.2s-1.4-1-2.3-1.3c-0.9-0.3-1.8-0.4-2.8-0.4 -1 0-1.9 0.1-2.7 0.4 -0.8 0.3-1.6 0.7-2.2 1.2 -0.7 0.5-1.2 1.1-1.6 1.9 -0.4 0.7-0.8 1.5-0.9 2.4 -0.1 0.5-0.4 0.9-0.7 1.2 -0.3 0.2-0.7 0.4-1.2 0.4 -0.1 0-0.2 0-0.3 0 -0.1 0-0.2 0-0.3 0l-2.6-0.4c0.3-1.8 0.8-3.4 1.5-4.8 0.7-1.4 1.7-2.5 2.8-3.5 1.1-0.9 2.4-1.6 3.9-2.1C47.1 27.6 48.7 27.3 50.4 27.3zM50 100C22.4 100 0 77.6 0 50S22.4 0 50 0s50 22.4 50 50S77.6 100 50 100zM50 4.6C25 4.6 4.6 25 4.6 50S25 95.4 50 95.4 95.4 75 95.4 50 75 4.6 50 4.6z"/></svg>
