<svg xmlns="http://www.w3.org/2000/svg" viewBox="0 0 100 100"><title>Bullet point 3</title><path d="M50.3 27.2c1.7 0 3.2 0.2 4.6 0.7 1.4 0.5 2.6 1.2 3.6 2s1.8 1.9 2.4 3.2c0.6 1.2 0.9 2.6 0.9 4.1 0 1.2-0.2 2.4-0.5 3.3 -0.3 1-0.8 1.8-1.4 2.6 -0.6 0.7-1.3 1.4-2.2 1.9C57 45.6 56 46 55 46.3c2.6 0.7 4.5 1.8 5.8 3.4 1.3 1.6 1.9 3.6 1.9 6 0 1.8-0.3 3.4-1 4.9C61 62 60 63.3 58.9 64.3c-1.2 1-2.6 1.8-4.2 2.3 -1.6 0.5-3.3 0.8-5.1 0.8 -2.1 0-3.9-0.3-5.4-0.8 -1.5-0.5-2.7-1.2-3.8-2.2 -1-0.9-1.9-2-2.5-3.3s-1.2-2.6-1.7-4.1l2.1-0.9c0.4-0.2 0.8-0.2 1.2-0.2 0.4 0 0.7 0.1 1 0.2s0.5 0.4 0.6 0.7c0 0.1 0.1 0.2 0.1 0.2 0 0.1 0.1 0.2 0.1 0.3 0.3 0.5 0.6 1.1 0.9 1.8s0.9 1.3 1.5 1.9c0.6 0.6 1.4 1.1 2.3 1.5s2.1 0.6 3.4 0.6c1.4 0 2.6-0.2 3.6-0.7 1-0.4 1.9-1 2.6-1.7 0.7-0.7 1.2-1.5 1.6-2.4 0.3-0.9 0.5-1.8 0.5-2.6 0-1.1-0.1-2-0.4-2.9 -0.3-0.9-0.8-1.6-1.5-2.3 -0.7-0.6-1.8-1.1-3.1-1.5 -1.3-0.4-3-0.5-5-0.5V45c1.7 0 3.1-0.2 4.3-0.5 1.2-0.3 2.1-0.8 2.9-1.4s1.3-1.3 1.6-2.2c0.3-0.8 0.5-1.8 0.5-2.8 0-1.1-0.2-2.1-0.5-3 -0.4-0.8-0.8-1.5-1.5-2.1 -0.6-0.5-1.4-1-2.2-1.2 -0.9-0.3-1.8-0.4-2.8-0.4 -1 0-1.9 0.1-2.7 0.4 -0.8 0.3-1.6 0.7-2.2 1.2 -0.6 0.5-1.2 1.1-1.6 1.9 -0.4 0.7-0.8 1.5-1 2.3 -0.1 0.5-0.4 0.9-0.7 1.2 -0.3 0.2-0.7 0.4-1.1 0.4 -0.1 0-0.2 0-0.3 0 -0.1 0-0.2 0-0.3 0l-2.6-0.4c0.3-1.8 0.8-3.4 1.5-4.8 0.7-1.4 1.7-2.5 2.8-3.5 1.1-0.9 2.4-1.6 3.9-2.1C47.1 27.4 48.7 27.2 50.3 27.2zM50 100C22.4 100 0 77.6 0 50S22.4 0 50 0s50 22.4 50 50S77.6 100 50 100zM50 4.6C25 4.6 4.6 25 4.6 50S25 95.4 50 95.4 95.4 75 95.4 50 75 4.6 50 4.6z"/></svg>
