<?xml version="1.0" encoding="utf-8"?>
<!-- Generator: Adobe Illustrator 17.1.0, SVG Export Plug-In . SVG Version: 6.00 Build 0)  -->
<!DOCTYPE svg PUBLIC "-//W3C//DTD SVG 1.1//EN" "http://www.w3.org/Graphics/SVG/1.1/DTD/svg11.dtd">
<svg version="1.1" id="Layer_1" xmlns="http://www.w3.org/2000/svg" xmlns:xlink="http://www.w3.org/1999/xlink" x="0px" y="0px"
	 viewBox="0 32.2 100 28.9" enable-background="new 0 32.2 100 28.9" xml:space="preserve">
<path fill="#231F20" d="M62.5,60.8v-1.6c0-0.4,0-1.4-0.9-1.4c-0.2,0-0.5,0.1-0.7,0.2s-0.3,0.4-0.4,0.6c-0.1,0.2-0.1,0.4-0.1,0.9v1.2
	H60v-3.4h0.5v0.5c0.2-0.2,0.3-0.3,0.5-0.4c0.2-0.1,0.4-0.2,0.7-0.2c1.2,0,1.3,1.3,1.3,1.7v1.8H62.5z"/>
<path fill="#231F20" d="M67.2,48.8h-1.3v-4.2c0-0.7-0.1-1.3-0.2-1.5c-0.1-0.2-0.2-0.5-0.5-0.6c-0.2-0.2-0.6-0.2-0.9-0.2
	c-0.4,0-0.8,0.1-1.2,0.4c-0.4,0.2-0.6,0.6-0.7,1c-0.2,0.4-0.2,1.2-0.2,2.2v3H61v-3.9c0-0.9-0.1-1.5-0.2-1.7
	c-0.1-0.3-0.2-0.5-0.5-0.7s-0.6-0.2-0.9-0.2c-0.4,0-0.8,0.1-1.1,0.4c-0.4,0.2-0.6,0.6-0.8,1c-0.2,0.4-0.2,1.1-0.2,2v3.3H56V41h1.3
	v1.1c0.2-0.3,0.5-0.5,0.7-0.7c0.5-0.3,1-0.4,1.6-0.4c0.4,0,0.7,0.1,1,0.2c0.3,0.1,0.6,0.4,0.9,0.6c0.2,0.2,0.3,0.4,0.4,0.7
	c0.3-0.4,0.6-0.8,1-1c0.5-0.3,1-0.5,1.6-0.5c0.6,0,1,0.1,1.4,0.4c0.4,0.2,0.7,0.7,0.9,1.2s0.3,1.2,0.3,2.1L67.2,48.8L67.2,48.8z"/>
<path fill="#231F20" d="M0.2,34c0.2-0.3,0.4-0.7,0.7-1c0.3-0.3,0.8-0.4,1.3-0.5c0.9-0.2,1.8-0.3,2.7-0.3c1.9,0,3.7,0.3,5.5,0.8
	c1.8,0.5,3.6,1.2,5.3,2.3c0.8,0.5,1.5,1,2.3,1.6c0.3,0.3,1.7,1.4,2,1.8c1.2,1.3,2.2,2.8,2.5,4.6c0.2,1.6-0.5,3.4-1.7,4.5
	c-1.3,1.2-3.1,1.7-4.8,1.9c-0.9,0.1-1.8,0.2-2.7,0.1c-0.9-0.1-1.7-0.3-2.6-0.5c-0.1,0-0.1,0.7-0.2,0.8c-0.2,0.2-0.7,0.3-1,0.3
	c-0.9-0.2-0.8-1.2-0.9-1.9c0-0.1-0.3-0.2-0.4-0.3c-0.2-0.1-0.4-0.2-0.6-0.3c-0.4-0.2-0.8-0.5-1.2-0.7c-0.7-0.5-1.4-1.1-2-1.7
	c-0.5-0.5-1.2-1.3-1-2.1c0.2-0.8,1.1-1.1,1.7-1.5c0.8-0.4,1.6-0.6,2.5-0.8C7.8,41,8,41,8.2,40.9c0.1,0,0.4-0.1,0.5-0.2
	c0.1-0.2,0.1-0.4,0.1-0.6c0-0.2,0-0.5,0.1-0.7c0-0.4,0.1-0.9,0.2-1.3c0.1-0.4,0.1-0.8,0.4-1.1c0.3-0.3,0.6,0.2,0.7,0.4
	c0.3,0.4,0.3,0.7,0.4,1.2c0.1,0.4,0.1,0.8,0.1,1.3c0,0.2,0,0.4,0,0.7c0,0.1-0.1,0.2,0.1,0.2c0.1,0,0.3,0,0.4,0
	c0.9,0,1.8,0.2,2.7,0.3c1.3,0.3,3.6,0.8,3.4,2.6c-0.1,0.7-0.6,1.3-1.2,1.5c-0.4,0.1-0.7,0.1-1.1-0.1c-0.1-0.1-0.4-0.1-0.5-0.3
	c-0.1-0.2,0.3-0.3,0.4-0.4c0.3-0.2,1-0.5,0.5-0.9c-0.5-0.3-1-0.4-1.5-0.6c-0.6-0.1-1.1-0.2-1.7-0.3c-0.6-0.1-1.2-0.1-1.7-0.1
	c0,0.9,0,1.8-0.1,2.7c0,0.6,0,1.1-0.1,1.7c0,0.1,0,0.5,0,0.5s0.5,0.1,0.6,0.1c0.2,0,0.5,0.1,0.7,0.1c0.9,0.2,1.9,0.2,2.8,0.1
	c0.9-0.1,1.8-0.3,2.7-0.6c0.8-0.3,1.6-0.7,2.1-1.4c0.5-0.6,0.8-1.4,0.8-2.1c0.1-1.7-1.3-3.3-2.4-4.4c-0.7-0.6-1.4-1.2-2.2-1.7
	c-0.8-0.5-1.6-1-2.5-1.5c-0.8-0.4-1.7-0.8-2.6-1.1c-0.9-0.3-1.8-0.5-2.7-0.8C7.4,34.1,7,34,6.6,33.9c-0.4-0.1-0.9-0.1-1.3-0.2
	c-0.9-0.1-1.9-0.1-2.8,0.1c-0.3,0-0.5,0.1-0.8,0.2c-0.1,0-0.5,0.2-0.3,0.2c0.2,0,1.1,0.2,0.9,0.5C2,35,1.4,34.9,1,34.8
	c-0.2,0-0.4-0.1-0.6-0.2C0.1,34.5,0.2,34.3,0.2,34C0.4,33.7,0.2,34.1,0.2,34z M8.6,42.7c0,0-1.8,0.1-2.7,0.3
	c-0.4,0.1-0.9,0.2-1.3,0.4c-0.2,0.1-0.8,0.2-0.8,0.5c0,0.4,0.5,0.7,0.7,0.9c0.3,0.3,0.7,0.6,1.1,0.9C6.1,46,6.5,46.2,7,46.5
	c0.4,0.2,0.9,0.4,1.3,0.6C8.3,46.8,8.5,43.4,8.6,42.7C8.3,42.7,8.6,42.7,8.6,42.7z"/>
<path fill="#231F20" d="M54.4,44.6c-0.1,1.1-0.4,2.2-1.2,3.1c-0.7,0.8-1.5,1.5-2.6,1.7c-0.2,0.1-0.5,0.1-0.7,0.1c-0.1,0-0.3,0-0.4,0
	c-0.2,0-0.2-0.1-0.3,0.1c-0.2,0.6-0.5,1.2-0.7,1.9c-0.4,1.2-0.8,2.4-1,3.7c-0.1,0.3-0.2,1.3-0.7,0.9c-0.4-0.3-0.8-0.7-0.9-1.1
	c-0.4-1.1-0.1-2.4,0.2-3.5c0.2-0.6,0.4-1.2,0.7-1.8c0.1-0.3,0.2-0.5,0.4-0.8c0.1-0.1,0.1-0.3,0.2-0.4c0.1-0.2,0.2-0.3,0.1-0.5
	c-0.7-0.8-0.4-2.3,0-3.2c0.3-0.8,0.8-1.5,1.3-2.2c0.2-0.3,0.5-0.6,0.8-0.8c0.3-0.2,0.7-0.5,0.7,0c0,0.9-0.6,1.6-1,2.3
	c-0.4,0.8-0.7,1.4-0.7,2.3c1.1-1.3,2-2.8,3.5-3.7c0.7-0.4,1.6-0.6,2.1,0.1C54.4,43.3,54.5,44,54.4,44.6z M50.2,47.5
	C50.2,47.5,50.2,47.5,50.2,47.5c0.9,0,1.8-0.5,2.4-1.2c0.3-0.3,0.5-0.7,0.7-1c0.1-0.3,0.4-1.1,0.1-1.4c-0.4-0.3-1.1,0.8-1.3,1.1
	c-0.3,0.4-0.6,0.7-0.9,1.1C50.8,46.6,50.5,47,50.2,47.5C50.2,47.5,50.4,47.1,50.2,47.5z"/>
<path fill="#231F20" d="M29.6,48.9c-0.8,0-1.7-0.2-2.4-0.7c-0.6-0.3-1.3-1-1.3-1.8c0-0.8,0.8-1.3,1.5-1.3c0.9,0,1.7,0,2.5,0.3
	c0.4,0.1,0.8,0.3,1.1,0.5c0.3,0.3-0.3,0.6-0.5,0.7c-0.8,0.2-1.6,0-2.4-0.3c-0.3-0.1-0.7-0.3-1-0.2c-0.3,0.1-0.5,0.6-0.2,0.7
	c0.4,0.2,0.7,0.3,1.1,0.3c0.4,0,0.9,0.1,1.3,0c0.8-0.1,1.7-0.2,2.4-0.7c0.3-0.3,0.4-0.6,0-0.9c-0.3-0.2-0.8-0.3-1.1-0.3
	c-0.4-0.1-0.8-0.2-1.2-0.2c-0.4-0.1-0.9-0.1-1.4-0.1c-0.6-0.1-2,0-2.3-0.8c-0.2-0.7,0.1-1.7,0.6-2.1c0.7-0.5,1.7-0.7,2.5-0.8
	c0.5-0.1,0.9-0.2,1.4-0.1c0.5,0,1,0.1,1.4,0.1c0.4,0,0.9,0.1,1.3,0.2c0.4,0.1,0.9,0.2,0.7,0.7c-0.1,0.2-0.2,0.4-0.4,0.5
	c-0.4,0.1-0.8,0.1-1.2,0.1c-0.9,0.1-1.7,0.1-2.6,0.2c-0.4,0-0.9,0.1-1.3,0.1c-0.1,0-1.2,0.2-0.8,0.4c0.3,0.2,0.8,0.2,1.2,0.2
	c0.5,0.1,0.9,0.1,1.4,0.2c0.8,0.1,1.8,0.1,2.5,0.6c0.7,0.4,0.9,1.3,0.9,2c0,0.7-0.3,1.3-0.9,1.7c-0.5,0.3-1.1,0.6-1.6,0.7
	C30.4,48.8,30,48.9,29.6,48.9z"/>
<path fill="#231F20" d="M43.4,44.5c0.9-0.1,1.6-0.1,2.1,0c0.2,0,0.3,0.1,0.3,0.3c0,0.2,0,0.6-0.1,0.8c0,0.2-0.2,0.2-0.4,0.3
	c-0.2,0.1-1.5,0-2.2,0.1c-0.1,0-0.3,0-0.3,0s-0.3,0.9-0.4,1.2c-0.1,0.1,0,0.2,0.1,0.2c0.5-0.1,1-0.2,1.5-0.2c0.3-0.1,0.6-0.1,1-0.1
	c0.2,0,0.4-0.1,0.6,0c0.4,0.1,0.7,0.7,0.4,1c-0.1,0.2-0.3,0.3-0.5,0.5c-0.6,0.5-1.3,0.8-2.1,1c-0.3,0.1-0.7,0.1-1,0.2
	c-1,0.2-1.7-0.7-1.9-1.3c-0.1-0.4-0.1-0.9,0.1-1.3c0.1-0.4,0.2-0.7,0.4-1.2c0-0.1,0-0.1,0-0.2c-0.1-0.2-0.1-0.4-0.1-0.7
	c-0.1-0.3,0.1-0.4,0.4-0.5c0.2-0.1,0.4-0.1,0.5-0.4c0.1-0.3,0.2-0.6,0.4-0.8c-0.2-0.1-0.4-0.1-0.6-0.1c-0.4-0.2-0.7-0.5-0.8-0.9
	c-0.1-0.1,0.1-0.3,0.2-0.3c0.4-0.1,2-0.3,2.8-0.4c0.8,0,1.4-0.1,1.8-0.1c0.2,0,0.4,0,0.6,0.1c0.4,0.1,0.7,0.4,0.9,0.8
	c0.1,0.2,0.2,0.4,0.2,0.6c0,0.1-0.1,0.2-0.2,0.2c-0.8,0.2-3.5,0.2-3.5,0.3C43.6,43.8,43.5,44.1,43.4,44.5z"/>
<path fill="#231F20" d="M35.5,44.6c-0.2,0.9-0.1,1.8-0.3,2.7c-0.1,0.7,0,1.8-0.9,1.7c-0.4,0-0.6-0.3-0.7-0.6
	c-0.1-0.4-0.2-0.9-0.1-1.3c0.1-1,0.2-2.1,0.4-3.1c0.1-0.6,0.4-2,1.2-2.2c0.4-0.1,0.6,0.3,0.9,0.6c0.3,0.4,0.6,0.8,0.8,1.2
	c0.4,0.5,0.7,1.1,1,1.6c0.2,0.3,0.4,0.8,0.7,1.1c0-0.2,0.1-0.3,0.1-0.5c0-0.2-0.1-0.4-0.1-0.7c-0.1-0.5-0.2-1.1-0.3-1.6
	c-0.1-0.6-0.2-1.1-0.4-1.7c-0.1-0.3-0.4-1.1-0.2-1.5c0.5-0.6,1.7,1.3,1.8,1.6c0.5,1,0.7,2,0.7,3.1c0.1,1,0,2-0.5,2.9
	c-0.5,0.8-1.5,0.9-2.1,0.2c-0.5-0.6-0.9-1.3-1.3-2C35.9,45.6,35.5,45.1,35.5,44.6C35.5,44.6,35.5,44.6,35.5,44.6
	C35.4,44.8,35.5,44.6,35.5,44.6z"/>
<path fill="#231F20" d="M23.2,39.8c-0.1,0.1-0.2,0.2-0.3,0.4c-0.2,0.3-0.9,0-0.9,0S21.7,39.5,22,39c-0.3-0.2-0.5-0.6-0.6-1
	c-0.1-0.5,0-0.9,0.2-1.3c0.2-0.3,0.4-0.6,0.7-0.9c0.2-0.3,0.6-0.6,0.9-0.7c0.5-0.4,1.1-0.6,1.7-0.7c0.5-0.1,1-0.1,1.5-0.1
	c0.4,0.1,0.7,0.1,1,0.4c0.1,0.1,0.2,0.2,0.2,0.3c0.1,0.1,0.1,0.1,0.2,0.1c0.4,0.1,0.8,0.2,1,0.5c0.2,0.3,0.3,0.6,0.2,1
	c-0.1,0.7-0.4,1.2-0.9,1.7c-0.7,0.7-1.5,1.3-2.4,1.6c-0.4,0.1-0.7,0.2-1.2,0.2C24.2,40.1,23.7,40,23.2,39.8
	C23.2,39.8,23.2,39.8,23.2,39.8z M23.9,38.6c0.2,0.1,1.4,0.1,1.8,0c0.7-0.1,1.3-0.4,1.8-1c0.2-0.2,0.4-0.5,0.5-0.9
	c0.1-0.4-0.1-0.6-0.4-0.6c-0.3-0.1-0.6,0.1-0.9,0.2c-0.4,0.2-0.9,0.5-1.2,0.8C24.8,37.5,24.3,38,23.9,38.6z M22.6,37.8
	c0.6-0.9,1.3-1.5,2.1-2.1c-0.1,0-0.2-0.1-0.4,0c-0.8,0.2-1.3,0.6-1.7,1.4C22.4,37.3,22.4,37.6,22.6,37.8z"/>
<path fill="#231F20" d="M24.8,43c0,1.6,0.1,3.2,0,4.8c-0.1,0.7-0.2,1.2-1,1.1C22.9,48.7,23,48,23,47.3c0-1.7,0-3.4,0.4-5.1
	c0.1-0.4,0.5-1.6,1.1-0.8C24.8,41.9,24.7,42.3,24.8,43C24.8,43.6,24.8,42.6,24.8,43z"/>
<path fill="#231F20" d="M72.1,48.9c-1.2,0-2.1-0.4-2.9-1.2s-1.1-1.7-1.1-2.8c0-1,0.4-2,1-2.8c0.8-0.9,1.8-1.3,2.9-1.3
	c1.2,0,2.1,0.4,2.9,1.3c0.7,0.8,1,1.7,1,2.8c0,1-0.4,2-1.1,2.8C74.2,48.4,73.3,48.9,72.1,48.9z M72.1,42c-0.7,0-1.3,0.2-1.9,0.8
	c-0.6,0.6-0.8,1.2-0.8,2c0,0.5,0.1,1,0.4,1.4s0.6,0.7,1,1s0.9,0.4,1.3,0.4s0.9-0.1,1.3-0.4s0.7-0.6,1-1s0.4-0.9,0.4-1.4
	c0-0.8-0.2-1.4-0.8-2C73.5,42.3,72.9,42,72.1,42z"/>
<path fill="#231F20" d="M81,48.9c-0.6,0-1.2-0.1-1.7-0.4c-0.4-0.2-0.7-0.5-1-0.8v1.2H77V37.3h1.3v4.8c0.3-0.3,0.7-0.6,1-0.8
	c0.5-0.2,1-0.4,1.7-0.4c1,0,2,0.4,2.7,1.2c0.7,0.7,1.1,1.7,1.1,2.8c0,1-0.4,2-1.1,2.8C83,48.4,82.1,48.9,81,48.9z M81,42.2
	c-0.5,0-0.9,0.1-1.3,0.4s-0.7,0.6-1,1c-0.2,0.4-0.4,0.9-0.4,1.4c0,0.8,0.2,1.4,0.8,2c0.5,0.6,1.1,0.8,1.9,0.8c0.5,0,0.9-0.1,1.3-0.4
	s0.7-0.6,1-1c0.2-0.4,0.4-0.9,0.4-1.3s-0.1-0.9-0.4-1.3s-0.6-0.8-1-1C81.9,42.3,81.5,42.2,81,42.2z"/>
<rect x="86.2" y="41.2" fill="#231F20" width="1.3" height="7.7"/>
<path fill="#231F20" d="M86.8,39.2c-0.2,0-0.5-0.1-0.7-0.3c-0.2-0.2-0.2-0.4-0.2-0.7s0.1-0.5,0.2-0.7c0.2-0.2,0.4-0.3,0.7-0.3
	c0.2,0,0.5,0.1,0.7,0.3c0.2,0.2,0.2,0.4,0.2,0.7s-0.1,0.5-0.2,0.7C87.3,39.1,87.1,39.2,86.8,39.2z"/>
<rect x="89.4" y="37.3" fill="#231F20" width="1.3" height="11.5"/>
<path fill="#231F20" d="M95.7,48.9c-1.2,0-2.1-0.4-2.9-1.2c-0.7-0.8-1-1.7-1-2.7c0-0.9,0.3-1.8,0.9-2.5c0.7-0.9,1.7-1.4,2.9-1.4
	c1.3,0,2.3,0.5,3.1,1.5c0.6,0.7,0.8,1.5,0.8,2.6v0.2H93c0.1,0.7,0.3,1.3,0.7,1.8c0.5,0.5,1,0.7,1.8,0.7c0.4,0,0.7-0.1,1-0.2
	s0.6-0.3,0.9-0.5c0.2-0.2,0.5-0.6,0.7-1l0.1-0.1l1,0.6l-0.1,0.1c-0.2,0.5-0.6,0.9-0.9,1.3c-0.4,0.3-0.7,0.6-1.2,0.7
	C96.7,48.7,96.2,48.9,95.7,48.9z M93.2,44h4.9c-0.1-0.4-0.2-0.7-0.4-0.9c-0.2-0.2-0.5-0.5-0.9-0.7s-0.7-0.2-1.2-0.2
	c-0.7,0-1.2,0.2-1.7,0.6C93.7,43.1,93.4,43.5,93.2,44z"/>
<path fill="#231F20" d="M59.7,59.1c0,1-0.8,1.8-1.8,1.8s-1.8-0.8-1.8-1.8s0.8-1.8,1.8-1.8S59.7,58.1,59.7,59.1z M57.9,57.8
	c-0.7,0-1.2,0.6-1.2,1.3s0.5,1.3,1.2,1.3s1.2-0.6,1.2-1.3S58.6,57.8,57.9,57.8z"/>
<path fill="#231F20" d="M68.9,54.1v2.4c-0.3-0.2-0.7-0.3-1.2-0.3c-1.4,0-2.5,1.1-2.5,2.4c0,1.3,1.1,2.4,2.5,2.4c1.3,0,2.5-1,2.5-1
	v-6H68.9z M67.7,59.8c-0.7,0-1.2-0.5-1.2-1.2c0-0.7,0.5-1.2,1.2-1.2s1.2,0.5,1.2,1.2C68.9,59.3,68.4,59.8,67.7,59.8z"/>
<path fill="#231F20" d="M73.6,56.2c-1.4,0-2.5,1.1-2.5,2.4c0,1.3,1.1,2.4,2.5,2.4c1.4,0,2.5-1.1,2.5-2.4
	C76.1,57.2,74.9,56.2,73.6,56.2z M73.6,59.8c-0.7,0-1.2-0.5-1.2-1.2c0-0.7,0.5-1.2,1.2-1.2c0.7,0,1.2,0.5,1.2,1.2
	C74.7,59.2,74.2,59.8,73.6,59.8z"/>
<path fill="#231F20" d="M83.6,56.2c-1.4,0-2.5,1.1-2.5,2.4c0,1.3,1.1,2.4,2.5,2.4c1.4,0,2.5-1.1,2.5-2.4
	C86.1,57.2,85,56.2,83.6,56.2z M83.6,59.8c-0.7,0-1.2-0.5-1.2-1.2c0-0.7,0.5-1.2,1.2-1.2c0.7,0,1.2,0.5,1.2,1.2
	C84.8,59.2,84.3,59.8,83.6,59.8z"/>
<path fill="#231F20" d="M97.3,56.2c-1.4,0-2.5,1.1-2.5,2.4c0,1.3,1.1,2.4,2.5,2.4c1.4,0,2.5-1.1,2.5-2.4
	C99.8,57.2,98.7,56.2,97.3,56.2z M97.3,59.8c-0.7,0-1.2-0.5-1.2-1.2c0-0.7,0.5-1.2,1.2-1.2c0.7,0,1.2,0.5,1.2,1.2
	C98.5,59.2,98,59.8,97.3,59.8z"/>
<polygon fill="#231F20" points="71.6,54.1 72.3,55 72.3,54.1 72.7,54.1 72.7,55.5 72.3,55.5 71.6,54.6 71.6,55.5 71.2,55.5 
	71.2,54.1 "/>
<rect x="75" y="54.1" fill="#231F20" width="0.4" height="1.5"/>
<polygon fill="#231F20" points="74.2,54.1 73.8,54.1 73.5,54.1 73.1,54.1 73.1,54.4 73.5,54.4 73.5,55.5 73.8,55.5 73.8,54.4 
	74.2,54.4 "/>
<polygon fill="#231F20" points="75.8,54.1 75.4,54.1 75,54.1 74.6,54.1 74.6,54.4 75,54.4 75,55.5 75.4,55.5 75.4,54.4 75.8,54.4 
	"/>
<path fill="#231F20" d="M79.2,59.8c-0.7,0-1.2-0.5-1.2-1.2c0-0.7,0.5-1.1,1.2-1.1h1.4v-1.2h-1.4c-1.4,0-2.5,1-2.5,2.4
	c0,1.3,1.1,2.4,2.5,2.4h1.4v-1.2L79.2,59.8L79.2,59.8z"/>
<path fill="#231F20" d="M91.2,58.1c0,0.5,0,1,0,1.5"/>
<path fill="#231F20" d="M92.7,58.1C92.7,58.1,92.7,58.1,92.7,58.1c0-0.3-0.3-0.7-0.8-0.7s-0.8,0.3-0.8,0.7l0,0c0,0.3,0,2.8,0,2.8
	h-1.4c0,0,0-2.6,0-2.9c0-0.3-0.2-0.6-0.7-0.6c-0.5,0-0.8,0.3-0.8,0.7c0,0.5,0,2.9,0,2.9h-1.3c0,0,0-2.6,0-3c0-0.4,0.1-0.8,0.3-1.1
	c0.3-0.3,0.8-0.7,1.7-0.7c1,0,1.5,0.4,1.6,0.5c0.1-0.1,0.7-0.5,1.6-0.5c0.9,0,1.2,0.2,1.5,0.6c0.3,0.4,0.4,1,0.4,1.1
	c0,1,0,3.1,0,3.1h-1.3C92.7,61.1,92.7,58.2,92.7,58.1"/>
<path fill="#231F20" d="M92.7,58.7c0-0.2,0-0.4,0-0.6"/>
</svg>
