<?xml version="1.0" encoding="utf-8"?>
<!-- Generator: Adobe Illustrator 17.1.0, SVG Export Plug-In . SVG Version: 6.00 Build 0)  -->
<!DOCTYPE svg PUBLIC "-//W3C//DTD SVG 1.1//EN" "http://www.w3.org/Graphics/SVG/1.1/DTD/svg11.dtd">
<svg version="1.1" id="Layer_1" xmlns="http://www.w3.org/2000/svg" xmlns:xlink="http://www.w3.org/1999/xlink" x="0px" y="0px"
	 viewBox="0 35.3 100 29.5" enable-background="new 0 35.3 100 29.5" xml:space="preserve">
<path fill="#231F20" d="M71.6,46.3v1.5c0,0,0.9-1.7,2.8-1.7c1.9,0,3.9,1.3,3.9,4.9c0,3.5-2.2,4.9-3.9,4.9c-1.7,0-2.6-1.3-2.6-1.3
	v4.9h-2V46.3H71.6z M73.9,54.4c1.6,0,2.4-1.9,2.4-3.4s-0.8-3.2-2.3-3.2c-1.3,0-2.2,1.5-2.2,2.4s0,1.6,0,2.1S72.3,54.4,73.9,54.4z"/>
<path fill="#231F20" d="M82.6,46.2c2.7,0,3.4,2.2,3.4,3c0,0.8,0,6.6,0,6.6h-1.7v-1.1c0,0-0.9,1.3-2.6,1.3c-1.2,0-2.8-0.1-2.8-3
	c0.1-3.2,4.2-3.2,5.3-3.2c0-1.6-0.8-2.1-2-2.1c-1.2,0-2.1,0.7-2.1,0.7l-0.5-1.5C79.4,46.9,79.9,46.2,82.6,46.2z M80.6,53
	c0,0-0.1,1.5,1.5,1.5c1,0,1.9-1.2,1.9-1.7c0-0.6,0-1.3,0-1.7C80.5,51.1,80.6,53,80.6,53z"/>
<path fill="#231F20" d="M92.9,46.8l-0.4,1.5c-0.5-0.2-1.1-0.5-1.9-0.5c-0.8,0-1.3,0.6-1.3,1.2c0,0.6,0.4,0.9,1.7,1.5
	c1.3,0.6,2.1,1.2,2.1,3c0,2.2-2.4,2.7-3.5,2.7c-1.1,0-1.9-0.2-2.7-0.6l0.6-1.5c0.5,0.4,1.4,0.6,2.2,0.6c0.8,0,1.5-0.3,1.5-1.2
	c0-0.9-1.1-1.4-1.7-1.7c-0.6-0.3-2.3-0.9-2.3-2.7c0-2.1,2.2-2.8,3.4-2.8C91.8,46.2,92.5,46.4,92.9,46.8z"/>
<path fill="#231F20" d="M99.7,46.8l-0.4,1.5c-0.5-0.2-1.1-0.5-1.9-0.5c-0.8,0-1.3,0.6-1.3,1.2c0,0.6,0.4,0.9,1.7,1.5
	c1.3,0.6,2.1,1.2,2.1,3c0,2.2-2.4,2.7-3.5,2.7c-1.1,0-1.9-0.2-2.7-0.6l0.6-1.5c0.5,0.4,1.4,0.6,2.2,0.6s1.5-0.3,1.5-1.2
	c0-0.9-1.1-1.4-1.7-1.7c-0.6-0.3-2.3-0.9-2.3-2.7c0-2.1,2.2-2.8,3.4-2.8C98.6,46.2,99.2,46.4,99.7,46.8z"/>
<path fill="#231F20" d="M-0.1,37.5c0.3-0.4,0.5-0.8,0.8-1.2c0.4-0.4,1-0.5,1.6-0.6c1.1-0.3,2.2-0.4,3.3-0.4c2.3,0,4.6,0.3,6.8,1
	c2.3,0.7,4.5,1.5,6.5,2.8c1,0.6,1.9,1.2,2.8,1.9c0.4,0.3,2.1,1.8,2.5,2.2c1.5,1.7,2.8,3.4,3.1,5.7c0.3,2-0.6,4.2-2.1,5.5
	c-1.7,1.5-3.8,2.1-6,2.4c-1.1,0.2-2.2,0.2-3.4,0.1c-1.1-0.1-2.1-0.4-3.2-0.6c-0.1,0-0.2,0.9-0.3,1c-0.3,0.3-0.8,0.4-1.2,0.4
	c-1.1-0.2-0.9-1.5-1.1-2.4c0-0.2-0.4-0.3-0.5-0.4c-0.2-0.1-0.5-0.3-0.7-0.4c-0.5-0.3-1-0.6-1.5-0.9c-0.9-0.6-1.7-1.4-2.4-2.2
	c-0.6-0.7-1.5-1.6-1.2-2.6C4.2,48,5.2,47.5,6,47.1c1-0.5,2-0.8,3.1-1c0.2,0,0.5-0.1,0.7-0.1c0.2,0,0.5-0.1,0.6-0.2
	c0.1-0.2,0.1-0.5,0.1-0.8c0-0.3,0.1-0.6,0.1-0.9c0.1-0.5,0.2-1.1,0.3-1.6c0.1-0.5,0.2-1,0.5-1.4c0.3-0.4,0.8,0.2,0.9,0.5
	c0.3,0.4,0.4,0.9,0.5,1.5c0.1,0.5,0.1,1,0.1,1.6c0,0.3,0,0.5,0,0.8c0,0.1-0.1,0.3,0.1,0.3c0.2,0,0.3,0,0.5,0c1.1,0,2.2,0.2,3.3,0.4
	c1.6,0.3,4.4,1,4.2,3.2c-0.1,0.8-0.7,1.6-1.5,1.9c-0.4,0.2-0.9,0.1-1.3-0.1c-0.2-0.1-0.5-0.2-0.6-0.4c-0.1-0.2,0.4-0.4,0.5-0.5
	c0.4-0.2,1.3-0.6,0.6-1.1c-0.6-0.4-1.3-0.6-1.9-0.7c-0.7-0.1-1.4-0.3-2.1-0.3c-0.7-0.1-1.4-0.2-2.1-0.2c0,1.1,0,2.3-0.1,3.4
	c0,0.7,0,1.4-0.1,2.1c0,0.1,0,0.6,0,0.6s0.6,0.1,0.8,0.2c0.3,0,0.6,0.1,0.9,0.2c1.1,0.3,2.3,0.2,3.4,0.1c1.1-0.2,2.3-0.4,3.4-0.8
	c1-0.4,1.9-0.9,2.6-1.7c0.6-0.7,1-1.7,1-2.6c0.1-2.1-1.6-4-3-5.4c-0.8-0.8-1.7-1.4-2.7-2.1c-1-0.7-2-1.3-3-1.8c-1-0.5-2.1-1-3.2-1.4
	c-1.1-0.4-2.2-0.7-3.3-0.9c-0.5-0.1-1-0.3-1.5-0.4c-0.5-0.1-1.1-0.1-1.7-0.2C5,37,3.8,36.9,2.7,37.2c-0.3,0.1-0.6,0.1-1,0.2
	c-0.1,0-0.7,0.2-0.3,0.3c0.2,0,1.4,0.2,1.1,0.6c-0.3,0.4-1.1,0.3-1.5,0.2c-0.3,0-0.5-0.1-0.8-0.2C-0.1,38-0.1,37.8-0.1,37.5
	C0.2,37.1-0.1,37.6-0.1,37.5z M10.3,48.2c0,0-2.2,0.1-3.3,0.3C6.5,48.7,6,48.8,5.5,49c-0.3,0.1-1,0.2-0.9,0.6c0,0.5,0.6,0.9,0.9,1.2
	c0.4,0.4,0.9,0.8,1.3,1.1c0.5,0.3,1,0.6,1.6,0.9c0.5,0.3,1.1,0.5,1.6,0.7C9.9,53.3,10.2,49.1,10.3,48.2
	C9.9,48.2,10.3,48.2,10.3,48.2z"/>
<path fill="#231F20" d="M67,50.6c-0.1,1.4-0.5,2.7-1.5,3.8c-0.8,1-1.9,1.8-3.2,2.1c-0.3,0.1-0.6,0.1-0.9,0.1c-0.2,0-0.3,0-0.5-0.1
	c-0.2,0-0.3-0.2-0.4,0.1c-0.3,0.8-0.6,1.5-0.9,2.3c-0.5,1.5-0.9,3-1.2,4.6c-0.1,0.4-0.2,1.6-0.9,1.1c-0.5-0.3-0.9-0.8-1.2-1.4
	c-0.5-1.4-0.1-2.9,0.3-4.3c0.2-0.7,0.5-1.5,0.8-2.2c0.1-0.3,0.3-0.6,0.4-1c0.1-0.2,0.2-0.3,0.2-0.5c0.1-0.2,0.3-0.4,0.1-0.6
	c-0.8-1-0.5-2.9,0-4c0.4-1,0.9-1.9,1.6-2.7c0.3-0.4,0.6-0.7,1-1c0.3-0.3,0.8-0.7,0.8,0c0,1.1-0.8,1.9-1.3,2.8
	c-0.5,0.9-0.9,1.8-0.9,2.8c1.4-1.6,2.5-3.4,4.3-4.6c0.8-0.5,2-0.7,2.6,0.2C66.9,48.9,67,49.8,67,50.6z M61.7,54.1
	C61.8,54.1,61.8,54.1,61.7,54.1c1.1,0,2.2-0.6,3-1.4c0.3-0.4,0.6-0.8,0.8-1.3c0.1-0.4,0.5-1.4,0.1-1.7c-0.5-0.3-1.4,1-1.6,1.3
	c-0.3,0.5-0.7,0.9-1.1,1.4C62.4,53,62.1,53.6,61.7,54.1C61.8,54.1,62,53.7,61.7,54.1z"/>
<path fill="#231F20" d="M36.2,55.8c-1,0-2.1-0.3-3-0.8c-0.8-0.4-1.6-1.3-1.6-2.2c0-1,0.9-1.6,1.8-1.6c1.1,0,2.1,0,3.1,0.4
	c0.5,0.2,0.9,0.3,1.4,0.6c0.4,0.4-0.4,0.7-0.7,0.8c-1,0.3-2,0-2.9-0.4c-0.3-0.2-0.9-0.4-1.3-0.3c-0.3,0.1-0.7,0.7-0.2,0.9
	c0.5,0.2,0.8,0.3,1.4,0.3c0.5,0,1.1,0.1,1.6,0c1-0.2,2.1-0.2,2.9-0.9c0.4-0.3,0.5-0.7,0-1.1c-0.4-0.3-0.9-0.3-1.4-0.4
	c-0.5-0.1-1-0.2-1.5-0.3c-0.6-0.1-1.1-0.1-1.7-0.1c-0.8-0.1-2.5,0-2.8-1c-0.3-0.8,0.1-2.1,0.8-2.6c0.9-0.6,2-0.9,3.1-1
	c0.6-0.1,1.1-0.2,1.7-0.2c0.6,0,1.2,0.1,1.8,0.1c0.5,0,1.1,0.1,1.6,0.3c0.5,0.1,1.1,0.3,0.9,0.9c-0.1,0.3-0.3,0.5-0.5,0.7
	c-0.4,0.2-1,0.1-1.5,0.1c-1.1,0.1-2.1,0.1-3.2,0.2c-0.5,0-1.1,0.1-1.6,0.2c-0.1,0-1.4,0.2-0.9,0.5c0.4,0.2,1,0.2,1.5,0.2
	c0.6,0.1,1.1,0.2,1.7,0.2c1,0.1,2.2,0.1,3.1,0.7c0.9,0.5,1.1,1.6,1.1,2.5c0,0.9-0.4,1.6-1.1,2.1c-0.6,0.4-1.3,0.7-2,0.9
	C37.3,55.7,36.8,55.8,36.2,55.8z"/>
<path fill="#231F20" d="M53.4,50.4c1.1-0.1,2-0.1,2.6,0c0.2,0,0.4,0.2,0.4,0.4c0,0.3,0,0.7-0.1,1c0,0.2-0.3,0.3-0.5,0.4
	s-1.9,0-2.7,0.1c-0.2,0-0.4,0-0.4,0s-0.4,1.1-0.5,1.5c-0.1,0.2,0,0.2,0.2,0.2c0.6-0.1,1.3-0.2,1.9-0.3c0.4-0.1,0.8-0.1,1.2-0.2
	c0.2,0,0.5-0.1,0.8,0c0.5,0.2,0.8,0.9,0.5,1.3c-0.2,0.2-0.4,0.4-0.6,0.6c-0.8,0.6-1.7,1-2.6,1.3c-0.4,0.2-0.8,0.2-1.3,0.2
	c-1.2,0.2-2.1-0.8-2.3-1.7c-0.2-0.5-0.1-1.1,0.1-1.6c0.2-0.5,0.3-0.9,0.5-1.4c0-0.1,0-0.2,0-0.2c-0.1-0.3-0.1-0.5-0.2-0.8
	c-0.1-0.4,0.1-0.5,0.5-0.6c0.3-0.1,0.5-0.2,0.6-0.5c0.2-0.4,0.3-0.7,0.5-1c-0.2-0.1-0.5-0.1-0.7-0.2c-0.5-0.2-0.8-0.6-1-1.1
	c-0.1-0.2,0.2-0.4,0.3-0.4C51,47.4,53,47.1,54,47s1.7-0.1,2.2-0.1c0.2,0,0.5,0,0.8,0.1c0.5,0.2,0.8,0.5,1.1,1
	c0.2,0.2,0.3,0.5,0.3,0.8c0,0.2-0.1,0.3-0.2,0.3c-1,0.2-4.3,0.3-4.3,0.4C53.6,49.6,53.5,50,53.4,50.4z"/>
<path fill="#231F20" d="M43.5,50.5c-0.3,1.1-0.2,2.3-0.3,3.4c-0.1,0.8,0,2.2-1.2,2.2c-0.5,0-0.7-0.4-0.8-0.8
	c-0.1-0.5-0.2-1.1-0.2-1.6c0.1-1.3,0.2-2.5,0.5-3.8c0.2-0.8,0.5-2.5,1.5-2.7c0.5-0.1,0.8,0.4,1.1,0.7c0.4,0.5,0.7,1,1,1.5
	c0.4,0.6,0.8,1.3,1.3,2c0.3,0.4,0.5,1,0.9,1.4c0-0.2,0.1-0.4,0.1-0.6c0-0.3-0.1-0.5-0.2-0.8c-0.1-0.7-0.2-1.3-0.4-2
	c-0.2-0.7-0.3-1.4-0.5-2.1c-0.1-0.4-0.5-1.4-0.2-1.8c0.6-0.8,2.1,1.5,2.3,2c0.6,1.2,0.8,2.5,0.9,3.8c0.1,1.2,0,2.5-0.7,3.6
	c-0.6,1-1.9,1.1-2.6,0.2c-0.6-0.8-1.1-1.7-1.6-2.5C44.1,51.8,43.6,51.1,43.5,50.5C43.6,50.5,43.6,50.5,43.5,50.5
	C43.4,50.8,43.6,50.5,43.5,50.5z"/>
<path fill="#231F20" d="M28.4,44.7c-0.2,0.2-0.2,0.3-0.4,0.5c-0.3,0.4-1.1,0-1.1,0s-0.4-1-0.1-1.6c-0.4-0.3-0.6-0.7-0.7-1.2
	c-0.1-0.6,0-1.1,0.3-1.7c0.2-0.4,0.5-0.8,0.8-1.1c0.3-0.4,0.8-0.7,1.1-0.9c0.6-0.5,1.4-0.7,2-0.8c0.6-0.2,1.2-0.2,1.8-0.2
	c0.5,0.1,0.9,0.1,1.3,0.5c0.2,0.1,0.2,0.2,0.3,0.4c0.1,0.2,0.2,0.2,0.2,0.2c0.5,0.1,1,0.2,1.3,0.6s0.4,0.8,0.3,1.2
	c-0.2,0.8-0.5,1.5-1.1,2.1c-0.8,0.9-1.8,1.6-3,2c-0.5,0.2-0.9,0.2-1.4,0.3C29.6,45,29,44.9,28.4,44.7C28.4,44.7,28.4,44.7,28.4,44.7
	z M29.2,43.2c0.3,0.1,1.7,0.1,2.2,0c0.9-0.2,1.7-0.5,2.3-1.3c0.2-0.3,0.5-0.6,0.6-1.1c0.1-0.5-0.1-0.8-0.5-0.8
	c-0.4-0.1-0.8,0.1-1.1,0.2c-0.5,0.2-1.1,0.6-1.5,1C30.3,41.8,29.7,42.4,29.2,43.2z M27.6,42.2c0.8-1.1,1.6-1.9,2.7-2.6
	c-0.2,0-0.3-0.1-0.5,0c-1,0.2-1.7,0.8-2.1,1.7C27.4,41.6,27.4,41.9,27.6,42.2z"/>
<path fill="#231F20" d="M30.4,48.5c0,2,0.2,4,0,6c-0.1,0.8-0.2,1.5-1.2,1.3c-1.1-0.2-1-1-1-2c0-2.1,0-4.2,0.4-6.3
	c0.1-0.5,0.6-2,1.3-1C30.4,47.3,30.3,47.7,30.4,48.5C30.4,49.4,30.3,48.1,30.4,48.5z"/>
</svg>
