<?xml version="1.0" encoding="utf-8"?>
<!-- Generator: Adobe Illustrator 17.1.0, SVG Export Plug-In . SVG Version: 6.00 Build 0)  -->
<!DOCTYPE svg PUBLIC "-//W3C//DTD SVG 1.1//EN" "http://www.w3.org/Graphics/SVG/1.1/DTD/svg11.dtd">
<svg version="1.1" id="Layer_1" xmlns="http://www.w3.org/2000/svg" xmlns:xlink="http://www.w3.org/1999/xlink" x="0px" y="0px"
	 viewBox="0 28.6 100 28" enable-background="new 0 28.6 100 28" xml:space="preserve">
<path fill="#231F20" d="M82,56c0,0.3,0.2,0.3,0.2,0.3c0.1,0,0.3,0,0.3,0v0.2H81v-0.2c0,0,0.2,0,0.2,0c0.2,0,0.3-0.1,0.3-0.3
	c0-0.5,0-2.4,0-2.4H81v-0.3h0.5c0,0,0-0.3,0-0.4c0-0.3,0-0.6,0.2-0.9c0.1-0.1,0.2-0.2,0.3-0.3c0.4-0.2,0.8-0.2,1.2,0.1
	c0.1,0.1,0.2,0.2,0.2,0.3c0.1,0.1,0,0.3-0.1,0.3c-0.1,0.1-0.2,0-0.3-0.1c-0.1-0.1-0.1-0.2-0.2-0.3c-0.2-0.3-0.5-0.3-0.7,0
	c0,0-0.1,0.1-0.1,0.2C82,52.7,82,53.3,82,53.3h0.9v0.3H82C82,53.6,82,55.7,82,56z"/>
<path fill="#231F20" d="M85,56.2c0,0.1,0.1,0.1,0.1,0.2c-0.1,0.1-0.2,0.1-0.3,0.2c-0.2,0.1-0.5,0.1-0.7,0c-0.2-0.1-0.4-0.3-0.4-0.6
	c0-0.7,0-1.4,0-2.1c0-0.1,0-0.2,0-0.3c-0.2,0-0.3,0-0.5,0c0-0.1,0-0.1,0-0.2c0.6-0.1,0.7-0.4,0.8-0.9c0.1,0,0.1,0,0.2,0
	c0,0.3,0,0.6,0,0.9c0.3,0,0.7,0,0.7,0v0.3h-0.7c0,0,0,1.6,0,2.2c0,0,0,0.1,0,0.1c0,0.3,0.2,0.5,0.6,0.3c0,0,0.1,0,0.1,0
	C84.9,56.2,84.9,56.2,85,56.2z"/>
<path fill="#231F20" d="M62.6,56.4v-1.6c0-0.4,0-1.4-0.9-1.4c-0.2,0-0.5,0.1-0.7,0.2c-0.2,0.2-0.3,0.4-0.4,0.6
	c-0.1,0.2-0.1,0.4-0.1,0.9v1.2h-0.5V53h0.5v0.5c0.2-0.2,0.3-0.3,0.5-0.4c0.2-0.1,0.4-0.2,0.7-0.2c1.2,0,1.3,1.3,1.3,1.7v1.8H62.6z"
	/>
<path fill="#231F20" d="M59.8,54.7c0,1-0.8,1.8-1.8,1.8s-1.8-0.8-1.8-1.8c0-1,0.8-1.8,1.8-1.8S59.8,53.7,59.8,54.7z M58,53.4
	c-0.7,0-1.2,0.6-1.2,1.3c0,0.7,0.5,1.3,1.2,1.3s1.2-0.6,1.2-1.3C59.2,54,58.7,53.4,58,53.4z"/>
<path fill="#231F20" d="M85.5,51.7c0-0.1,0-0.1,0-0.2c0.1,0,0.2,0,0.2,0c0.7,0,1.4,0,2,0c0.4,0,0.8,0.1,1.1,0.3
	c0.3,0.2,0.4,0.4,0.4,0.7c0,0.1,0,0.2,0,0.3c-0.1,0.4-0.3,0.6-0.6,0.8c-0.1,0.1-0.2,0.1-0.4,0.2c0.1,0,0.3,0.1,0.4,0.1
	c0.3,0.1,0.5,0.2,0.7,0.5c0.4,0.4,0.3,1,0,1.4c-0.3,0.4-0.7,0.6-1.2,0.6c-0.8,0-1.7,0-2.5,0c-0.1,0-0.1,0-0.2,0c0-0.1,0-0.2,0-0.2
	c0.1,0,0.2,0,0.3,0c0.1,0,0.2-0.1,0.2-0.2c0-0.1,0-0.2,0-0.2c0-1.2,0-2.4,0-3.6c0,0,0-0.1,0-0.1c0-0.2-0.1-0.3-0.3-0.4
	C85.6,51.8,85.6,51.8,85.5,51.7z M86.6,54.1C86.6,54.1,86.6,54.1,86.6,54.1c0,0.7,0,1.3,0,1.9c0,0.1,0.1,0.2,0.2,0.2
	c0.2,0,0.4,0,0.6,0c0.2,0,0.5,0,0.7,0c0.5-0.1,0.8-0.5,0.8-1c0-0.5-0.2-0.9-0.7-1C87.7,54,87.2,54.1,86.6,54.1
	C86.6,54.1,86.6,54.1,86.6,54.1z M86.6,53.7c0.1,0,0.1,0,0.2,0c0.4,0,0.7,0,1.1,0c0.6-0.1,0.9-0.5,0.8-1.1c0-0.2-0.1-0.4-0.3-0.6
	c-0.2-0.1-0.4-0.2-0.7-0.2c-0.3,0-0.5,0-0.8,0c-0.1,0-0.2,0-0.2,0C86.6,52.5,86.6,53.1,86.6,53.7z"/>
<path fill="#231F20" d="M74,56.4c-0.1-0.4-0.2-0.7-0.2-1.1c0.1,0,0.2-0.1,0.2-0.1c0.1,0.1,0.1,0.2,0.2,0.4c0.2,0.5,0.5,0.7,1,0.7
	c0.2,0,0.5,0,0.7-0.1c0.6-0.2,0.8-0.8,0.5-1.3c-0.1-0.2-0.2-0.3-0.4-0.4c-0.2-0.1-0.4-0.2-0.6-0.3c-0.3-0.2-0.7-0.4-1-0.6
	c-0.3-0.2-0.5-0.4-0.5-0.8c-0.1-0.5,0.1-0.9,0.5-1.2c0.3-0.2,0.5-0.2,0.8-0.2c0.4,0,0.7,0,1.1,0.1c0.1,0,0.2,0.1,0.3,0.1
	c0.1,0.3,0.1,0.7,0.2,1c-0.1,0-0.2,0-0.2,0.1c0-0.1-0.1-0.1-0.1-0.2c0,0,0-0.1,0-0.1c-0.1-0.5-0.3-0.6-0.9-0.7c-0.3,0-0.6,0-0.8,0.2
	c-0.4,0.3-0.5,0.7-0.1,1.1c0.2,0.2,0.4,0.3,0.7,0.5c0.4,0.2,0.8,0.4,1.1,0.6c0.6,0.3,0.8,1,0.6,1.6c-0.1,0.4-0.4,0.6-0.8,0.7
	c-0.5,0.2-1.1,0.2-1.6,0.1C74.4,56.5,74.2,56.4,74,56.4z"/>
<path fill="#231F20" d="M97.9,54.8l-0.4,0.5c0,0,0,0.5,0,0.7c0,0.3,0,0.3,0.3,0.3c0,0,0,0,0.1,0c0,0,0,0.1,0,0.2c-0.5,0-0.9,0-1.3,0
	c0-0.1,0-0.1,0-0.1c0.1,0,0.3-0.1,0.4-0.1c0-0.2,0-0.3,0-0.5c0-1,0-2,0-3c0-0.1,0-0.3,0-0.4c0-0.2,0-0.2-0.2-0.2c0,0-0.1,0-0.1,0
	c0,0,0,0,0-0.1c0,0,0-0.1,0-0.1c0.3-0.1,0.6-0.2,0.9-0.3c0.1,0.1,0.1,0.2,0.1,0.3c0,0.8,0,1.7,0,2.5c0,0.1,0,0.1,0,0.2
	c0.2-0.1,1-0.9,1.1-1.1c-0.1,0-0.1-0.1-0.2-0.1c0,0,0-0.1,0-0.2c0.4,0,0.7,0,1.1,0c0,0.1,0,0.1,0,0.2c-0.3,0.1-0.4,0.2-0.6,0.4
	c-0.2,0.2-0.3,0.4-0.5,0.5c0,0.1,0.1,0.1,0.1,0.2c0.3,0.4,0.6,0.9,0.8,1.3c0.2,0.3,0.2,0.3,0.6,0.4c0,0,0,0,0,0.1c0,0,0,0,0,0.1
	c-0.3,0-0.5,0-0.8,0c-0.2-0.3-0.4-0.6-0.5-0.8C98.3,55.4,97.9,54.8,97.9,54.8z"/>
<path fill="#231F20" d="M96,56.2c0.1,0,0.2,0.1,0.3,0.1c0,0,0,0.1,0,0.2c-0.4,0-0.8,0-1.2,0c0-0.1,0-0.1,0-0.2c0,0,0.1,0,0.1,0
	c0.2,0,0.2-0.1,0.2-0.3c0-0.6,0-1.3,0-1.9c0-0.3-0.1-0.5-0.4-0.6c-0.1,0-0.3,0-0.4,0c-0.2,0.1-0.4,0.3-0.6,0.5c0,0.1,0,0.1,0,0.2
	c0,0.4,0,0.9,0,1.3c0,0.1,0,0.1,0,0.2c0,0.3,0,0.4,0.3,0.4c0,0.1,0,0.1,0,0.2c-0.4,0-0.8,0-1.2,0c0-0.1,0-0.1,0-0.2c0,0,0,0,0,0
	c0.3-0.1,0.3-0.1,0.4-0.4c0-0.5,0-1.1,0-1.6c0-0.1,0-0.3-0.1-0.4c-0.1,0-0.2-0.1-0.3-0.1c0,0,0-0.1,0-0.1c0.3-0.1,0.5-0.2,0.8-0.3
	c0.1,0.1,0,0.3,0.1,0.5c0.1-0.1,0.3-0.2,0.4-0.3c0.2-0.1,0.5-0.2,0.7-0.2c0.5,0.1,0.8,0.4,0.8,0.9c0,0.6,0,1.2,0,1.8
	C95.9,56,96,56.1,96,56.2z"/>
<path fill="#231F20" d="M92.5,56.3c0.1,0,0.2,0,0.3,0c0,0.1,0,0.1,0,0.2c-0.4,0.2-0.7,0.1-0.9-0.2c0,0-0.1,0-0.1,0.1
	c-0.3,0.3-0.7,0.3-1.1,0.2c-0.3-0.1-0.6-0.2-0.7-0.6c-0.1-0.3,0-0.7,0.3-0.9c0.3-0.2,0.7-0.4,1-0.5c0.2,0,0.3-0.1,0.5-0.1
	c0-0.3,0.1-0.6-0.1-0.8c-0.2-0.2-0.8-0.2-1,0.1c-0.1,0.2-0.1,0.3-0.3,0.4c-0.2-0.1-0.3-0.3-0.2-0.5c0.1-0.2,0.3-0.3,0.6-0.4
	c0.3-0.1,0.6-0.1,0.9,0c0.4,0.1,0.7,0.4,0.7,0.8c0,0.6,0,1.3,0,1.9C92.4,56.1,92.4,56.2,92.5,56.3z M91.8,54.8
	c-0.3,0-0.5,0.1-0.7,0.2c-0.2,0.1-0.4,0.2-0.5,0.3c-0.3,0.3-0.1,0.9,0.3,1c0.3,0.1,0.6-0.1,0.8-0.3c0,0,0-0.1,0-0.1
	C91.8,55.5,91.8,55.2,91.8,54.8z"/>
<path fill="#231F20" d="M80.6,54.9c0,0.3,0,0.6-0.2,0.9c-0.1,0.3-0.4,0.5-0.7,0.6c-0.5,0.2-0.9,0.2-1.3,0c-0.4-0.2-0.6-0.4-0.7-0.8
	c-0.1-0.4-0.1-0.8,0-1.2c0.2-0.8,0.6-1.1,1.3-1.2c0.5,0,0.9,0.1,1.2,0.5c0.3,0.3,0.3,0.6,0.4,1C80.6,54.8,80.6,54.9,80.6,54.9z
	 M78.1,54.9c0,0.2,0,0.4,0.1,0.6c0.1,0.4,0.2,0.7,0.6,0.8c0.4,0.1,0.8-0.1,1-0.4c0.2-0.4,0.2-0.9,0.2-1.4c0-0.2-0.1-0.4-0.2-0.5
	c-0.2-0.4-0.5-0.5-0.9-0.4c-0.3,0-0.6,0.2-0.7,0.5C78.2,54.3,78.1,54.6,78.1,54.9z"/>
<rect x="64.8" y="54.8" fill="#231F20" width="7" height="1.7"/>
<rect x="64.8" y="51.4" fill="#231F20" width="7" height="1.7"/>
<path fill="none" d="M81,56.5"/>
<path fill="#231F20" d="M67.4,45.2h-1.3V41c0-0.7-0.1-1.3-0.2-1.5c-0.1-0.2-0.2-0.5-0.5-0.6c-0.2-0.2-0.6-0.2-0.9-0.2
	c-0.4,0-0.8,0.1-1.2,0.4c-0.4,0.2-0.6,0.6-0.7,1c-0.2,0.4-0.2,1.2-0.2,2.2v3h-1.3v-3.9c0-0.9-0.1-1.5-0.2-1.7
	c-0.1-0.3-0.2-0.5-0.5-0.7c-0.2-0.2-0.6-0.2-0.9-0.2c-0.4,0-0.8,0.1-1.1,0.4c-0.4,0.2-0.6,0.6-0.8,1s-0.2,1.1-0.2,2v3.3h-1.3v-7.8
	h1.3v1.1c0.2-0.3,0.5-0.5,0.7-0.7c0.5-0.3,1-0.4,1.6-0.4c0.4,0,0.7,0.1,1,0.2c0.3,0.1,0.6,0.4,0.9,0.6c0.2,0.2,0.3,0.4,0.4,0.7
	c0.3-0.4,0.6-0.8,1-1c0.5-0.3,1-0.5,1.6-0.5s1,0.1,1.4,0.4c0.4,0.2,0.7,0.7,0.9,1.2c0.2,0.5,0.3,1.2,0.3,2.2L67.4,45.2L67.4,45.2z"
	/>
<path fill="#231F20" d="M0,30.4c0.2-0.3,0.4-0.7,0.7-1C1,29,1.5,29,1.9,28.9c0.9-0.2,1.8-0.3,2.7-0.3c1.9,0,3.8,0.3,5.6,0.8
	c1.8,0.6,3.7,1.2,5.3,2.3c0.8,0.5,1.6,1,2.3,1.6c0.3,0.3,1.7,1.4,2,1.8c1.2,1.4,2.3,2.8,2.5,4.6c0.2,1.6-0.5,3.4-1.7,4.5
	c-1.3,1.2-3.1,1.7-4.8,2c-0.9,0.1-1.8,0.2-2.8,0.1c-0.9-0.1-1.7-0.3-2.6-0.5c-0.1,0-0.1,0.7-0.2,0.8c-0.2,0.2-0.7,0.4-1,0.3
	c-0.9-0.2-0.8-1.3-0.9-1.9c0-0.1-0.3-0.2-0.4-0.3c-0.2-0.1-0.4-0.2-0.6-0.3c-0.4-0.2-0.8-0.5-1.2-0.7c-0.7-0.5-1.4-1.1-2-1.8
	c-0.5-0.5-1.2-1.3-1-2.1c0.2-0.8,1.1-1.1,1.7-1.5c0.8-0.4,1.6-0.6,2.5-0.8c0.2,0,0.4-0.1,0.6-0.1c0.1,0,0.4-0.1,0.5-0.2
	c0.1-0.2,0.1-0.4,0.1-0.6c0-0.2,0-0.5,0.1-0.7c0-0.4,0.1-0.9,0.2-1.3C9,34.1,9,33.7,9.3,33.4c0.3-0.3,0.6,0.2,0.8,0.4
	c0.3,0.4,0.3,0.7,0.4,1.2c0.1,0.4,0.1,0.8,0.1,1.3c0,0.2,0,0.4,0,0.7c0,0.1-0.1,0.2,0.1,0.2c0.1,0,0.3,0,0.4,0
	c0.9,0,1.8,0.2,2.7,0.3c1.3,0.3,3.6,0.8,3.4,2.6c-0.1,0.7-0.6,1.3-1.2,1.5c-0.4,0.1-0.7,0.1-1.1-0.1c-0.1-0.1-0.4-0.1-0.5-0.3
	c-0.1-0.2,0.3-0.3,0.4-0.4c0.3-0.2,1-0.5,0.5-0.9c-0.5-0.3-1-0.5-1.6-0.6c-0.6-0.1-1.1-0.2-1.7-0.3c-0.6-0.1-1.2-0.1-1.7-0.1
	c0,0.9,0,1.8-0.1,2.8c0,0.6,0,1.1-0.1,1.7c0,0.1,0,0.5,0,0.5s0.5,0.1,0.6,0.1c0.2,0,0.5,0.1,0.7,0.1c0.9,0.2,1.9,0.2,2.8,0.1
	c0.9-0.1,1.9-0.3,2.7-0.7c0.8-0.3,1.6-0.7,2.1-1.4c0.5-0.6,0.8-1.4,0.8-2.2c0.1-1.7-1.3-3.3-2.4-4.4c-0.7-0.6-1.4-1.2-2.2-1.7
	c-0.8-0.5-1.6-1-2.5-1.5c-0.8-0.4-1.7-0.8-2.6-1.2c-0.9-0.3-1.8-0.5-2.7-0.8c-0.4-0.1-0.8-0.2-1.3-0.3c-0.4-0.1-0.9-0.1-1.4-0.2
	c-0.9-0.1-1.9-0.1-2.8,0.1c-0.3,0-0.5,0.1-0.8,0.2c-0.1,0-0.5,0.2-0.3,0.2c0.2,0,1.1,0.2,0.9,0.5c-0.3,0.3-0.9,0.2-1.2,0.2
	c-0.2,0-0.4-0.1-0.6-0.2C-0.1,30.8,0,30.6,0,30.4C0.2,30.1,0,30.5,0,30.4z M8.4,39.1c0,0-1.8,0.1-2.7,0.3c-0.4,0.1-0.9,0.2-1.3,0.4
	c-0.2,0.1-0.8,0.2-0.8,0.5c0,0.4,0.5,0.7,0.7,1c0.3,0.3,0.7,0.6,1.1,0.9c0.4,0.3,0.8,0.5,1.3,0.8c0.4,0.2,0.9,0.4,1.3,0.6
	C8.1,43.2,8.3,39.8,8.4,39.1C8.1,39.1,8.4,39.1,8.4,39.1z"/>
<path fill="#231F20" d="M54.5,41.1c-0.1,1.1-0.4,2.2-1.2,3.1c-0.7,0.8-1.6,1.5-2.6,1.7C50.5,46,50.2,46,50,46c-0.1,0-0.3,0-0.4,0
	c-0.2,0-0.2-0.1-0.3,0.1c-0.2,0.6-0.5,1.2-0.7,1.9c-0.4,1.2-0.8,2.5-1,3.7c-0.1,0.3-0.2,1.3-0.7,0.9c-0.4-0.3-0.8-0.7-1-1.1
	c-0.4-1.1-0.1-2.4,0.2-3.5c0.2-0.6,0.4-1.2,0.7-1.8c0.1-0.3,0.2-0.5,0.4-0.8c0.1-0.1,0.1-0.3,0.2-0.4c0.1-0.2,0.2-0.3,0.1-0.5
	c-0.7-0.9-0.4-2.4,0-3.3c0.3-0.8,0.8-1.6,1.3-2.2c0.2-0.3,0.5-0.6,0.8-0.8c0.3-0.2,0.7-0.5,0.7,0c0,0.9-0.6,1.6-1,2.3
	c-0.4,0.8-0.7,1.4-0.7,2.3c1.1-1.3,2-2.8,3.5-3.7c0.7-0.4,1.6-0.6,2.1,0.1C54.5,39.7,54.6,40.4,54.5,41.1z M50.2,43.9
	C50.3,43.9,50.3,43.9,50.2,43.9c0.9,0,1.8-0.5,2.4-1.2c0.3-0.3,0.5-0.7,0.7-1c0.1-0.3,0.4-1.2,0.1-1.4c-0.4-0.3-1.1,0.8-1.3,1.1
	c-0.3,0.4-0.6,0.7-0.9,1.1C50.8,43,50.5,43.5,50.2,43.9C50.3,43.9,50.5,43.6,50.2,43.9z"/>
<path fill="#231F20" d="M29.5,45.3c-0.8,0-1.7-0.2-2.4-0.7c-0.6-0.3-1.3-1.1-1.3-1.8c0-0.8,0.8-1.3,1.5-1.3c0.9,0,1.7,0,2.5,0.3
	c0.4,0.1,0.8,0.3,1.1,0.5c0.3,0.3-0.3,0.6-0.5,0.7c-0.9,0.3-1.6,0-2.4-0.3c-0.3-0.1-0.7-0.3-1-0.2c-0.3,0.1-0.5,0.6-0.2,0.7
	c0.4,0.2,0.7,0.3,1.1,0.3c0.4,0,0.9,0.1,1.3,0c0.8-0.1,1.7-0.2,2.4-0.7c0.3-0.3,0.4-0.6,0-0.9c-0.3-0.2-0.8-0.3-1.2-0.3
	c-0.4-0.1-0.8-0.2-1.2-0.3c-0.5-0.1-0.9-0.1-1.4-0.1c-0.6-0.1-2,0-2.3-0.8c-0.2-0.7,0.1-1.7,0.6-2.1c0.7-0.5,1.7-0.7,2.5-0.8
	c0.5-0.1,0.9-0.2,1.4-0.1c0.5,0,1,0.1,1.4,0.1c0.4,0,0.9,0.1,1.3,0.2c0.4,0.1,0.9,0.2,0.7,0.7c-0.1,0.2-0.2,0.4-0.4,0.5
	c-0.4,0.1-0.8,0.1-1.2,0.1c-0.9,0.1-1.7,0.1-2.6,0.2c-0.4,0-0.9,0.1-1.3,0.1c-0.1,0-1.2,0.2-0.8,0.4c0.3,0.2,0.9,0.2,1.2,0.2
	c0.5,0.1,0.9,0.1,1.4,0.2c0.8,0.1,1.8,0.1,2.5,0.6c0.7,0.4,0.9,1.3,0.9,2c0,0.7-0.3,1.3-0.9,1.7c-0.5,0.3-1.1,0.6-1.6,0.7
	C30.4,45.2,29.9,45.3,29.5,45.3z"/>
<path fill="#231F20" d="M43.4,40.9c0.9-0.1,1.7-0.1,2.1,0c0.2,0,0.3,0.1,0.3,0.3c0,0.2,0,0.6-0.1,0.8c0,0.2-0.2,0.2-0.4,0.3
	c-0.2,0.1-1.5,0-2.2,0.1c-0.1,0-0.3,0-0.3,0s-0.3,0.9-0.4,1.2c-0.1,0.1,0,0.2,0.1,0.2c0.5-0.1,1-0.2,1.5-0.2c0.3-0.1,0.6-0.1,1-0.1
	c0.2,0,0.4-0.1,0.6,0c0.4,0.1,0.7,0.7,0.4,1c-0.1,0.2-0.3,0.3-0.5,0.5c-0.6,0.5-1.4,0.8-2.1,1c-0.3,0.1-0.7,0.1-1,0.2
	c-1,0.2-1.7-0.7-1.9-1.4c-0.1-0.4-0.1-0.9,0.1-1.3c0.1-0.4,0.2-0.7,0.4-1.2c0-0.1,0-0.1,0-0.2C41,42,41,41.8,40.9,41.5
	c-0.1-0.3,0.1-0.4,0.4-0.5c0.2-0.1,0.4-0.1,0.5-0.4c0.1-0.3,0.2-0.6,0.4-0.8c-0.2-0.1-0.4-0.1-0.6-0.1c-0.4-0.2-0.7-0.5-0.8-0.9
	c-0.1-0.1,0.1-0.3,0.2-0.3c0.4-0.1,2-0.3,2.8-0.4c0.8,0,1.4-0.1,1.8-0.1c0.2,0,0.4,0,0.6,0.1c0.4,0.1,0.7,0.4,0.9,0.8
	c0.1,0.2,0.2,0.4,0.2,0.6c0,0.1-0.1,0.2-0.2,0.2c-0.9,0.2-3.5,0.2-3.5,0.3C43.6,40.2,43.6,40.5,43.4,40.9z"/>
<path fill="#231F20" d="M35.4,41c-0.2,0.9-0.1,1.8-0.3,2.8c-0.1,0.7,0,1.8-0.9,1.8c-0.4,0-0.6-0.3-0.7-0.6c-0.1-0.4-0.2-0.9-0.1-1.3
	c0.1-1,0.2-2.1,0.4-3.1c0.1-0.6,0.4-2,1.2-2.2c0.4-0.1,0.6,0.3,0.9,0.6c0.3,0.4,0.6,0.8,0.8,1.2c0.4,0.5,0.7,1.1,1,1.6
	c0.2,0.3,0.4,0.8,0.7,1.1c0-0.2,0.1-0.3,0.1-0.5c0-0.2-0.1-0.4-0.1-0.7c-0.1-0.5-0.2-1.1-0.3-1.6c-0.1-0.6-0.2-1.1-0.4-1.7
	c-0.1-0.3-0.4-1.1-0.2-1.5c0.5-0.6,1.7,1.3,1.8,1.6c0.5,1,0.7,2,0.8,3.1c0.1,1,0,2-0.5,2.9c-0.5,0.8-1.5,0.9-2.1,0.2
	c-0.5-0.6-0.9-1.3-1.3-2.1C35.9,42,35.5,41.5,35.4,41C35.5,41,35.5,41,35.4,41C35.4,41.2,35.5,41,35.4,41z"/>
<path fill="#231F20" d="M23.2,36.2c-0.1,0.1-0.2,0.2-0.3,0.4c-0.2,0.3-0.9,0-0.9,0s-0.4-0.8-0.1-1.3c-0.3-0.2-0.5-0.6-0.6-1
	c-0.1-0.5,0-0.9,0.2-1.4c0.2-0.3,0.4-0.6,0.7-0.9c0.2-0.3,0.6-0.6,0.9-0.7c0.5-0.4,1.1-0.6,1.7-0.7c0.5-0.1,1-0.1,1.5-0.1
	c0.4,0.1,0.7,0.1,1,0.4c0.1,0.1,0.2,0.2,0.2,0.3c0.1,0.1,0.1,0.1,0.2,0.1c0.4,0.1,0.8,0.2,1,0.5s0.3,0.6,0.2,1
	c-0.1,0.7-0.4,1.2-0.9,1.7c-0.7,0.7-1.5,1.3-2.4,1.6c-0.4,0.1-0.7,0.2-1.2,0.2C24.1,36.5,23.6,36.4,23.2,36.2
	C23.1,36.2,23.1,36.2,23.2,36.2z M23.8,35c0.2,0.1,1.4,0.1,1.8,0c0.7-0.1,1.4-0.4,1.9-1c0.2-0.2,0.4-0.5,0.5-0.9
	c0.1-0.4-0.1-0.6-0.4-0.6c-0.3-0.1-0.6,0.1-0.9,0.2c-0.4,0.2-0.9,0.5-1.2,0.8C24.7,33.9,24.2,34.4,23.8,35z M22.5,34.2
	c0.6-0.9,1.3-1.5,2.2-2.1c-0.1,0-0.2-0.1-0.4,0c-0.8,0.2-1.4,0.6-1.7,1.4C22.4,33.7,22.4,33.9,22.5,34.2z"/>
<path fill="#231F20" d="M24.8,39.4c0,1.6,0.1,3.3,0,4.9c-0.1,0.7-0.2,1.2-1,1.1c-0.9-0.1-0.8-0.8-0.8-1.6c0-1.7,0-3.4,0.4-5.1
	c0.1-0.4,0.5-1.6,1.1-0.8C24.8,38.3,24.7,38.7,24.8,39.4C24.8,40.1,24.7,39,24.8,39.4z"/>
<path fill="#231F20" d="M72.3,45.3c-1.2,0-2.2-0.4-2.9-1.2c-0.7-0.8-1.1-1.7-1.1-2.8s0.4-2,1-2.8c0.8-0.9,1.8-1.3,3-1.3
	c1.2,0,2.2,0.4,3,1.3c0.7,0.8,1,1.7,1,2.8s-0.4,2-1.1,2.8C74.4,44.9,73.5,45.3,72.3,45.3z M72.3,38.4c-0.7,0-1.4,0.2-1.9,0.8
	c-0.6,0.6-0.8,1.2-0.8,2c0,0.5,0.1,1,0.4,1.4c0.2,0.4,0.6,0.7,1,1s0.9,0.4,1.4,0.4s0.9-0.1,1.4-0.4c0.4-0.2,0.7-0.6,1-1
	s0.4-0.9,0.4-1.4c0-0.8-0.2-1.4-0.8-2C73.7,38.8,73,38.4,72.3,38.4z"/>
<path fill="#231F20" d="M81.2,45.3c-0.6,0-1.2-0.1-1.7-0.4c-0.4-0.2-0.7-0.5-1-0.8v1.2h-1.3V33.7h1.3v4.9c0.3-0.3,0.7-0.6,1-0.8
	c0.5-0.2,1-0.4,1.7-0.4c1,0,2,0.4,2.7,1.2c0.7,0.7,1.1,1.7,1.1,2.8s-0.4,2-1.1,2.8C83.2,44.9,82.3,45.3,81.2,45.3z M81.2,38.6
	c-0.5,0-0.9,0.1-1.4,0.4s-0.7,0.6-1,1c-0.2,0.4-0.4,0.9-0.4,1.4c0,0.8,0.2,1.4,0.8,2c0.5,0.6,1.1,0.8,1.9,0.8c0.5,0,0.9-0.1,1.4-0.4
	c0.4-0.2,0.7-0.6,1-1c0.2-0.4,0.4-0.9,0.4-1.4c0-0.5-0.1-0.9-0.4-1.4c-0.2-0.4-0.6-0.8-1-1C82.1,38.7,81.7,38.6,81.2,38.6z"/>
<rect x="86.4" y="37.6" fill="#231F20" width="1.3" height="7.7"/>
<path fill="#231F20" d="M87,35.6c-0.2,0-0.5-0.1-0.7-0.3c-0.2-0.2-0.2-0.4-0.2-0.7s0.1-0.5,0.2-0.7c0.2-0.2,0.4-0.3,0.7-0.3
	c0.2,0,0.5,0.1,0.7,0.3c0.2,0.2,0.2,0.4,0.2,0.7c0,0.2-0.1,0.5-0.2,0.7C87.5,35.5,87.3,35.6,87,35.6z"/>
<rect x="89.6" y="33.7" fill="#231F20" width="1.3" height="11.6"/>
<path fill="#231F20" d="M96,45.3c-1.2,0-2.2-0.4-2.9-1.2c-0.7-0.8-1-1.7-1-2.7c0-0.9,0.3-1.8,0.9-2.5c0.7-0.9,1.7-1.4,3-1.4
	c1.3,0,2.3,0.5,3.1,1.5c0.6,0.7,0.8,1.5,0.8,2.6v0.2h-6.5c0.1,0.7,0.3,1.3,0.7,1.8c0.5,0.5,1,0.7,1.8,0.7c0.4,0,0.7-0.1,1-0.2
	c0.3-0.1,0.6-0.3,0.9-0.5c0.2-0.2,0.5-0.6,0.7-1l0.1-0.1l1,0.6l-0.1,0.1c-0.2,0.5-0.6,0.9-0.9,1.3c-0.4,0.3-0.7,0.6-1.2,0.7
	C97,45.2,96.5,45.3,96,45.3z M93.5,40.4h4.9c-0.1-0.4-0.2-0.7-0.4-0.9c-0.2-0.2-0.5-0.5-0.9-0.7c-0.4-0.2-0.7-0.2-1.2-0.2
	c-0.7,0-1.2,0.2-1.7,0.6C93.9,39.5,93.7,39.9,93.5,40.4z"/>
</svg>
