<?xml version="1.0" encoding="utf-8"?>
<!-- Generator: Adobe Illustrator 17.1.0, SVG Export Plug-In . SVG Version: 6.00 Build 0)  -->
<!DOCTYPE svg PUBLIC "-//W3C//DTD SVG 1.1//EN" "http://www.w3.org/Graphics/SVG/1.1/DTD/svg11.dtd">
<svg xmlns="http://www.w3.org/2000/svg" viewBox="0 0 100 100"><path fill="#929699" d="M0.2 88.7l12.2-28.8c0.5-1.1 1.6-1.8 2.7-1.8h1c-1.6 0-3-1.3-3-3V10.2c0-1.6 1.3-3 3-3h67.5c1.6 0 3 1.3 3 3v44.9c0 1.6-1.3 3-3 3h1c1.2 0 2.3 0.7 2.7 1.8l12.2 28.8c0.8 2-0.6 4.1-2.7 4.1H3C0.8 92.8-0.6 90.6 0.2 88.7zM20.6 49c0 1.6 1.3 2.8 2.8 2.8h52.9c1.6 0 2.8-1.3 2.8-2.8V16.2c0-1.6-1.3-2.8-2.8-2.8H23.5c-1.6 0-2.8 1.3-2.8 2.8V49z"/></svg>
