<?xml version="1.0" encoding="utf-8"?>
<!-- Generator: Adobe Illustrator 17.1.0, SVG Export Plug-In . SVG Version: 6.00 Build 0)  -->
<!DOCTYPE svg PUBLIC "-//W3C//DTD SVG 1.1//EN" "http://www.w3.org/Graphics/SVG/1.1/DTD/svg11.dtd">
<svg version="1.1" id="Layer_1" xmlns="http://www.w3.org/2000/svg" xmlns:xlink="http://www.w3.org/1999/xlink" x="0px" y="0px"
	 viewBox="0 0 100 100" enable-background="new 0 0 100 100" xml:space="preserve">
<g>
	<path fill="#929699" d="M50,0c19.7,0,35.7,16,35.7,35.7c0,12.5-6.4,23.5-16.1,29.9l0,8.5c0,1.6-1.3,2.9-2.9,2.9H60H33.3
		c-1.6,0-2.9-1.3-2.9-2.9l0-8.5c-9.7-6.4-16.1-17.4-16.1-29.9C14.3,16,30.3,0,50,0z M50,63c15.1,0,27.3-12.2,27.3-27.3
		S65.1,8.4,50,8.4S22.7,20.6,22.7,35.7S34.9,63,50,63z"/>
	<path fill="#929699" d="M34.2,91h31.6c1.1,0,2.1-0.9,2.1-2.1v-6.3c0-1.1-0.9-2.1-2.1-2.1H34.2c-1.1,0-2.1,0.9-2.1,2.1v6.3
		C32.1,90,33,91,34.2,91z"/>
	<path fill="#929699" d="M40.9,97.3c0,1.5,1.2,2.7,2.7,2.7h12.8c1.5,0,2.7-1.2,2.7-2.7l0,0c0-1.5-1.2-2.7-2.7-2.7H43.6
		C42.1,94.6,40.9,95.8,40.9,97.3L40.9,97.3z"/>
</g>
</svg>
