<?xml version="1.0" encoding="utf-8"?>
<!-- Generator: Adobe Illustrator 17.1.0, SVG Export Plug-In . SVG Version: 6.00 Build 0)  -->
<!DOCTYPE svg PUBLIC "-//W3C//DTD SVG 1.1//EN" "http://www.w3.org/Graphics/SVG/1.1/DTD/svg11.dtd">
<svg version="1.1" id="Layer_1" xmlns="http://www.w3.org/2000/svg" xmlns:xlink="http://www.w3.org/1999/xlink" x="0px" y="0px"
	 viewBox="0 0 100 100" enable-background="new 0 0 100 100" xml:space="preserve">
<path fill="#929699" d="M44.6,62.8L71,76c0.9,0.5,1.9-0.6,1.3-1.5L55.8,50c-0.1-0.1-0.2-0.3-0.4-0.3L29,36.5
	c-0.9-0.5-1.9,0.6-1.3,1.5l16.5,24.5C44.3,62.6,44.4,62.7,44.6,62.8z M54.7,52.3l11.7,17.3c0.4,0.6-0.3,1.4-1,1.1l-18.7-9.3
	c-0.4-0.2-0.6-0.8-0.2-1.2l7-8C53.8,51.9,54.4,51.9,54.7,52.3z"/>
<path fill="#929699" d="M55.6,12.9c1.1-1.4,1.8-3.1,1.8-5c0-4.3-3.5-7.8-7.8-7.8c-4.3,0-7.8,3.5-7.8,7.8c0,2,0.7,3.8,1.9,5.1
	C22.5,16,6.3,34.2,6.3,56.3C6.3,80.4,25.8,100,50,100s43.7-19.6,43.7-43.7C93.7,34,77.1,15.6,55.6,12.9z M49.6,3.2
	c2.5,0,4.6,2.1,4.6,4.6c0,2.5-2.1,4.6-4.6,4.6c-2.5,0-4.6-2.1-4.6-4.6C45,5.3,47,3.2,49.6,3.2z M54.2,91.1L54.2,91.1l-3.5-3.5
	c-0.6-0.6-1.6-0.6-2.2,0L45.1,91c-15.6-2.2-27.9-14.6-29.9-30.2l3.5-3.5c0.6-0.6,0.6-1.6,0-2.2l-3.5-3.5c0,0,0,0,0,0l0,0l0,0
	C17.2,36,29.5,23.7,45,21.5l0,0l3.5,3.5c0.6,0.6,1.6,0.6,2.2,0c0,0,3.6-3.6,3.6-3.6c15.9,1.9,28.5,14.5,30.6,30.4l-3.4,3.4
	c-0.6,0.6-0.6,1.6,0,2.2l3.4,3.4c0,0,0,0,0,0l0,0l0,0C82.8,76.7,70.1,89.2,54.2,91.1z"/>
</svg>
