<svg xmlns="http://www.w3.org/2000/svg" viewBox="0 0 100 100"><title>Instagram Logo</title><path d="M88.4 100c0.9 0 1.7-0.1 2.6-0.3 5.3-1.2 9.1-5.9 9.1-11.2 0-25.7 0-51.4 0-77.1 0-0.4 0-0.7-0.1-1.1 -0.3-2.7-1.4-5-3.3-6.9 -2.3-2.3-5-3.4-8.2-3.4 -5.8 0-11.7 0-17.5 0C51.2 0 31.5 0 11.8 0c-0.7 0-1.5 0-2.2 0.2C5.7 0.9 2.8 3.1 1.1 6.7c-0.8 1.6-1.1 3.3-1.1 5.1 0 20 0 40.1 0 60.1 0 5.5 0 10.9 0 16.4 0 0.7 0 1.3 0.1 1.9 0.7 4 2.9 6.9 6.5 8.7 1.5 0.8 3.2 1.1 4.9 1.1 12.8 0 25.6 0 38.5 0C62.8 100 75.6 100 88.4 100M20.2 42.3c-2.1 8.8-0.8 17 4.1 24.6 3.1 4.8 7.3 8.4 12.4 10.9 4.8 2.3 9.9 3.3 15.3 2.9 9.5-0.7 17.2-5 22.9-12.6 5.5-7.8 7.1-16.4 4.9-25.7h8.6c0 0.1 0 0.2 0 0.3 0 0.1 0 0.1 0 0.2 0 13.9 0 27.8 0 41.7 0 1-0.3 1.9-1 2.7 -0.7 0.8-1.5 1.2-2.5 1.3 -0.2 0-0.4 0-0.6 0 -22.9 0-45.7 0-68.6 0 -1.1 0-2-0.2-2.8-0.9 -0.8-0.7-1.2-1.5-1.3-2.5 0-0.2 0-0.4 0-0.6v-41.5 -0.5H20.2zM50 69.2c-10.5 0-19.2-8.6-19.2-19.3 0-10.4 8.4-19.2 19.2-19.2 10.7 0 19.2 8.6 19.2 19.2C69.2 60.8 60.4 69.2 50 69.2M73.1 30.8c-1.8 0-3.3-1.2-3.7-2.9 -0.1-0.3-0.1-0.6-0.1-0.9 0-3.8 0-7.7 0-11.5 0-2.2 1.7-3.9 3.8-3.9 3.8 0 7.7 0 11.5 0 2.2 0 3.8 1.7 3.8 3.9 0 3.8 0 7.6 0 11.5 0 2.2-1.7 3.9-3.8 3.9 -1.9 0-3.8 0-5.7 0C76.9 30.8 75 30.8 73.1 30.8"/></svg>