<?xml version="1.0" encoding="utf-8"?>
<!-- Generator: Adobe Illustrator 17.1.0, SVG Export Plug-In . SVG Version: 6.00 Build 0)  -->
<!DOCTYPE svg PUBLIC "-//W3C//DTD SVG 1.1//EN" "http://www.w3.org/Graphics/SVG/1.1/DTD/svg11.dtd">
<svg version="1.1" id="Layer_1" xmlns="http://www.w3.org/2000/svg" xmlns:xlink="http://www.w3.org/1999/xlink" x="0px" y="0px"
	 viewBox="0 46 100 48.3" enable-background="new 0 46 100 48.3" xml:space="preserve">
<polygon fill="#0B1F2A" points="100,86.9 84.5,82.9 67.3,80.3 50,79.5 32.7,80.3 15.5,82.9 0,86.9 0,46 100,46 "/>
<radialGradient id="SVGID_1_" cx="49.4168" cy="72.7147" r="62.0819" fx="49.3574" fy="66.3723" gradientTransform="matrix(1 0 0 1 0 53.9)" gradientUnits="userSpaceOnUse">
	<stop  offset="0" style="stop-color:#05C2F0;stop-opacity:0.3"/>
	<stop  offset="0.6787" style="stop-color:#09B2DC;stop-opacity:0.2644"/>
	<stop  offset="0.9632" style="stop-color:#274155;stop-opacity:1.102516e-02"/>
	<stop  offset="1" style="stop-color:#29384A;stop-opacity:0"/>
</radialGradient>
<polygon fill="url(#SVGID_1_)" points="100,86.9 84.5,82.9 67.3,80.3 50,79.5 32.7,80.3 15.5,82.9 0,86.9 0,46 100,46 "/>
<polygon fill="none" stroke="#DDDDDD" stroke-width="2.000000e-02" stroke-miterlimit="10" points="32.5,67.4 30.4,67.9 30.4,67.9 
	28.6,66.9 28.1,65 28.1,65 29.1,63.2 31.1,62.5 31.1,62.5 32.9,63.6 33.5,65.6 33.5,65.6 "/>
<polygon fill="none" stroke="#DDDDDD" stroke-width="2.000000e-02" stroke-miterlimit="10" points="69.5,70.2 68.5,70.7 68.5,70.7 
	67.5,70.5 66.9,69.6 66.9,69.6 67.2,68.6 68.1,68 68.1,68 69.1,68.3 69.7,69.2 69.7,69.2 "/>
<polygon fill="none" stroke="#DDDDDD" stroke-width="2.000000e-02" stroke-miterlimit="10" points="75,70.5 73.5,72.4 73.5,72.4 
	71.1,72.7 69.2,71.2 69.2,71.2 68.9,68.8 70.4,66.8 70.4,66.8 72.8,66.5 74.7,68 74.7,68 "/>
<polygon fill="none" stroke="#DDDDDD" stroke-width="2.000000e-02" stroke-miterlimit="10" points="92.6,65.4 92.3,65 92.3,65 
	92.4,64.5 92.8,64.2 92.8,64.2 93.3,64.2 93.6,64.6 93.6,64.6 93.5,65.1 93.1,65.4 93.1,65.4 "/>
<polygon fill="none" stroke="#DDDDDD" stroke-width="2.000000e-02" stroke-miterlimit="10" points="88.5,77.2 87.2,77.6 86,76.9 
	85.6,75.6 86.3,74.4 87.6,74 88.8,74.7 89.1,76 "/>
<polygon fill="none" stroke="#DDDDDD" stroke-width="2.000000e-02" stroke-miterlimit="10" points="9.4,63.5 9.1,63.5 8.8,63.3 
	8.8,62.9 9,62.6 9.4,62.6 9.7,62.8 9.7,63.2 "/>
<polygon fill="none" stroke="#DDDDDD" stroke-width="2.000000e-02" stroke-miterlimit="10" points="23.3,57.4 23.1,57.5 22.9,57.3 
	22.9,57.1 23,57 23.2,57 23.4,57.1 23.4,57.3 "/>
<polygon fill="none" stroke="#DDDDDD" stroke-width="2.000000e-02" stroke-miterlimit="10" points="11.6,63.2 10.3,63.5 9.2,62.9 
	8.9,61.6 9.5,60.5 10.8,60.2 11.9,60.9 12.2,62.1 "/>
</svg>
