<?xml version="1.0" encoding="utf-8"?>
<!-- Generator: Adobe Illustrator 17.1.0, SVG Export Plug-In . SVG Version: 6.00 Build 0)  -->
<!DOCTYPE svg PUBLIC "-//W3C//DTD SVG 1.1//EN" "http://www.w3.org/Graphics/SVG/1.1/DTD/svg11.dtd">
<svg version="1.1" id="Layer_1" xmlns="http://www.w3.org/2000/svg" xmlns:xlink="http://www.w3.org/1999/xlink" x="0px" y="0px"
	 viewBox="0 46 100 48.3" enable-background="new 0 46 100 48.3" xml:space="preserve">
<polygon fill="none" stroke="#DDDDDD" stroke-width="2.000000e-02" stroke-miterlimit="10" points="32.2,66 30.5,66.4 30.5,66.4 
	29.1,65.6 28.7,64 28.7,64 29.5,62.6 31,62.1 31,62.1 32.5,62.9 33,64.5 33,64.5 "/>
<polygon fill="none" stroke="#DDDDDD" stroke-width="2.000000e-02" stroke-miterlimit="10" points="69.2,70.1 68.5,70.5 68.5,70.5 
	67.7,70.3 67.2,69.6 67.2,69.6 67.4,68.8 68.1,68.3 68.1,68.3 69,68.5 69.4,69.2 69.4,69.2 "/>
<polygon fill="none" stroke="#DDDDDD" stroke-width="2.000000e-02" stroke-miterlimit="10" points="73.7,70.1 72.5,71.6 72.5,71.6 
	70.6,71.8 69.1,70.6 69.1,70.6 68.8,68.7 70,67.1 70,67.1 72,66.9 73.5,68.1 73.5,68.1 "/>
<polygon fill="none" stroke="#DDDDDD" stroke-width="2.000000e-02" stroke-miterlimit="10" points="92.6,65.4 92.3,65 92.3,65 
	92.4,64.5 92.8,64.2 92.8,64.2 93.3,64.2 93.6,64.6 93.6,64.6 93.5,65.1 93.1,65.4 93.1,65.4 "/>
<polygon fill="none" stroke="#DDDDDD" stroke-width="2.000000e-02" stroke-miterlimit="10" points="88.3,76.9 87.2,77.2 86.3,76.7 
	86,75.7 86.5,74.7 87.5,74.4 88.5,74.9 88.8,75.9 "/>
<polygon fill="none" stroke="#DDDDDD" stroke-width="2.000000e-02" stroke-miterlimit="10" points="9.4,59.7 9.1,59.7 8.8,59.5 
	8.8,59.1 9,58.8 9.4,58.8 9.7,59.1 9.7,59.4 "/>
<polygon fill="none" stroke="#DDDDDD" stroke-width="2.000000e-02" stroke-miterlimit="10" points="23.3,53.7 23.1,53.7 22.9,53.5 
	22.9,53.3 23,53.2 23.2,53.2 23.4,53.3 23.4,53.5 "/>
<polygon fill="none" stroke="#DDDDDD" stroke-width="2.000000e-02" stroke-miterlimit="10" points="79.3,52.8 79.1,52.9 79,52.8 
	79,52.6 79.1,52.5 79.3,52.5 79.4,52.6 79.4,52.7 "/>
<polygon fill="none" stroke="#DDDDDD" stroke-width="2.000000e-02" stroke-miterlimit="10" points="12.4,59.2 11.4,59.4 10.5,58.9 
	10.2,57.9 10.7,57 11.7,56.8 12.6,57.3 12.9,58.3 "/>
</svg>
