<svg xmlns="http://www.w3.org/2000/svg" x="0" y="0" viewBox="0 0 267.7 32.3" fill="#ffffff"><title>Kristin Au</title><polygon points="3.8 14.2 17.6 0.4 22.9 0.4 7.1 16.1 7.1 16.1 22.9 31.9 17.6 31.9 3.8 18.1 3.8 31.9 0 31.9 0 0.4 3.8 0.4 "/><polygon points="181.6 24.6 181.6 0.4 185.3 0.4 185.3 31.9 182.2 31.9 163.5 7.5 163.5 31.9 159.7 31.9 159.7 0.4 162.9 0.4 "/><path d="M46.2 18c1.4-0.4 2.6-0.9 3.1-1.1 1-0.5 2-1.3 2.6-2.1 0.7-0.8 1.2-1.6 1.5-2.6 0.4-1 0.5-2 0.5-3.1 0-1.3-0.2-2.5-0.7-3.6C52.8 4.4 52.1 3.5 51.2 2.7c-0.9-0.8-2.1-1.3-3.6-1.7 -1.5-0.4-3.2-0.6-5.2-0.6h-8.9v31.5h4.2V18.7h3.9c0.1 0 0.3 0 0.3 0l10 13.2h4.9L46.2 18zM42.2 15.6h-4.5V3.7h4.7c2.5 0 4.3 0.5 5.5 1.4 1.2 1 1.9 2.4 1.9 4.2 0 0.9-0.2 1.8-0.5 2.5 -0.3 0.8-0.8 1.4-1.4 2 -0.6 0.6-1.4 1-2.4 1.3C44.5 15.5 43.4 15.6 42.2 15.6"/><rect x="66.6" y="0.4" width="4.3" height="31.5"/><path d="M99 6.3c0 0-1.7-1.2-2.2-1.5 -0.5-0.3-1.1-0.6-1.8-0.8 -0.7-0.2-1.6-0.4-2.6-0.4 -1 0-1.8 0.1-2.5 0.4 -0.7 0.3-1.3 0.6-1.8 1 -0.5 0.4-0.9 1-1.1 1.6 -0.2 0.6-0.4 1.2-0.4 1.9 0 0.9 0.2 1.6 0.6 2.2s1 1.1 1.7 1.5c0.7 0.4 1.5 0.8 2.4 1.1 0.9 0.3 1.8 0.6 2.8 0.9 0.9 0.3 1.9 0.7 2.8 1.1 0.9 0.4 1.7 0.9 2.4 1.5 0.7 0.6 1.3 1.4 1.7 2.3 0.4 0.9 0.6 2 0.6 3.3 0 1.4-0.2 2.7-0.7 3.9 -0.5 1.2-1.2 2.3-2.1 3.2 -0.9 0.9-2 1.6-3.3 2.1 -1.3 0.5-2.8 0.8-4.5 0.8 -2 0-3.9-0.4-5.6-1.1 -1.7-0.7-3.1-1.7-4.3-3l2.1-3.2c0 0 2.1 1.8 2.7 2.2 0.6 0.4 1.3 0.8 2.2 1.1 0.8 0.3 1.9 0.5 3.1 0.5 1 0 1.9-0.1 2.7-0.4 0.8-0.3 1.5-0.7 2-1.2 0.6-0.5 1-1.1 1.3-1.8 0.3-0.7 0.4-1.5 0.4-2.4 0-1-0.2-1.7-0.6-2.3 -0.4-0.6-1-1.1-1.7-1.5 -0.7-0.4-1.5-0.8-2.4-1 -0.9-0.3-1.8-0.6-2.8-0.9 -0.9-0.3-1.9-0.6-2.8-1 -0.9-0.4-1.7-0.9-2.4-1.5 -0.7-0.6-1.3-1.4-1.7-2.4 -0.4-0.9-0.6-2.1-0.6-3.5 0-1.1 0.2-2.2 0.7-3.2 0.4-1 1.1-2 1.9-2.8 0.8-0.8 1.8-1.5 3-1.9S90.7 0 92.3 0c1.8 0 3.4 0.3 4.8 0.8 1.5 0.6 2.7 1.4 3.8 2.4L99 6.3z"/><polygon points="132.9 0.4 132.9 3.9 122.7 3.9 122.7 31.9 118.5 31.9 118.5 3.9 108.2 3.9 108.2 0.4 "/><rect x="142.6" y="0.4" width="4.3" height="31.5"/><path d="M235.8 31.9H231.4l-3.3-8.6H213.9l-3.3 8.6h-4.4L218.8 0.4h4.3L235.8 31.9zM215.1 20.2h11.8l-5-12.8c-0.3-0.8-0.6-1.8-0.9-3 -0.2 0.6-0.3 1.2-0.5 1.7 -0.2 0.5-0.3 1-0.5 1.3L215.1 20.2zM255.2 28.5c1.3 0 2.5-0.2 3.5-0.7 1-0.4 1.9-1.1 2.6-1.8 0.7-0.8 1.3-1.7 1.6-2.8 0.4-1.1 0.6-2.3 0.6-3.6V0.4h4.2v19.2c0 1.8-0.3 3.5-0.9 5.1 -0.6 1.6-1.4 2.9-2.5 4 -1.1 1.1-2.4 2-4 2.7 -1.6 0.6-3.3 1-5.2 1 -1.9 0-3.7-0.3-5.2-1 -1.6-0.6-2.9-1.5-4-2.7 -1.1-1.1-1.9-2.5-2.5-4 -0.6-1.6-0.9-3.2-0.9-5.1V0.4h4.2v19.2c0 1.3 0.2 2.5 0.6 3.6 0.4 1.1 0.9 2 1.6 2.8 0.7 0.8 1.6 1.4 2.6 1.9C252.7 28.3 253.9 28.5 255.2 28.5"/></svg>