<svg xmlns="http://www.w3.org/2000/svg" viewBox="0 0 100 100"><title>Linkedin Logo</title><path d="M22.4 66.5v31.8c0 1.3 0 1.3-1.3 1.3 -6.1 0-12.1 0-18.1 0 -1.1 0-1.1 0-1.1-1.1C1.8 77.2 1.8 55.8 1.8 34.4c0-1.1 0.1-1.2 1.2-1.2 6.1 0 12.1 0 18.2 0 1.2 0 1.2 0 1.2 1.2V66.5zM12.1 23.9C5.8 24.1 0.1 18.9 0.1 12 0.1 5.4 5.5 0 12.1 0.1c6.6 0 11.8 5.3 11.9 12C24.1 18.6 18.3 24.2 12.1 23.9M98.7 99.7c-6.1 0-12.1 0-18.2 0 -1.1 0-1.1 0-1.1-1.1 0-11.3 0-22.5 0-33.8 0-2.6-0.2-5.2-0.9-7.7 -0.7-2.6-2-4.9-4.5-6.3 -2-1-4.1-1.3-6.3-1.2 -4 0.2-7.5 1.7-9.3 5.5 -0.8 1.6-1.4 3.4-1.6 5.1 -0.4 2.4-0.5 4.8-0.5 7.2C56 77.8 56 88.1 56 98.4c0 1.3 0 1.3-1.3 1.3 -6 0-12 0-18.1 0 -1.2 0-1.2 0-1.2-1.2V34.4c0-1.2 0-1.2 1.2-1.2 5.8 0 11.7 0 17.5 0 1.1 0 1.1 0 1.1 1.1 0 2.3 0 4.5 0 6.8 0 0.3 0 0.6 0.1 0.9 0.1 0 0.1 0 0.2 0.1 0.1-0.2 0.3-0.4 0.4-0.6 3.9-6 9.4-9.1 16.4-9.9 4.2-0.5 8.3-0.1 12.4 1.1 5.8 1.7 9.8 5.3 12.2 10.8 1.7 3.9 2.5 8 2.7 12.2 0.2 5.3 0.3 10.5 0.3 15.8 0 9 0 17.9 0 26.9C99.9 99.7 99.9 99.7 98.7 99.7"/></svg>