<svg xmlns="http://www.w3.org/2000/svg" viewBox="0 0 100 100"><title>My personal logo linking to my home page</title><desc>A white uppercased 'K' centered and enclosed in a black octagon. A horizontal line runs across the octagon such that the line intersects with the 'K' to create an upppercase 'A' using the bottom half of the 'K'. </desc><polygon fill="#000F2A" points="39.6 78.8 24.2 63.4 24.2 41.5 39.6 26.1 61.4 26.1 76.9 41.5 76.9 63.4 61.4 78.8 "/><polygon fill="#FFFFFF" points="70.7 100 29.3 100 0 70.7 0 29.3 29.3 0 70.7 0 100 29.3 100 70.7 "/><polygon fill="#1A242C" points="39.8 54 39.8 33.2 43.1 33.2 43.1 45.5 55.4 33.2 60.1 33.2 46.1 47.2 46.1 47.2 52.9 54 96.1 54 96.1 30.9 69.1 3.9 30.9 3.9 3.9 30.9 3.9 54 "/><polygon fill="#1A242C" points="51.4 57.2 55.4 61.2 60.1 61.2 56.1 57.2 96.1 57.2 96.1 69.1 69.1 96.1 30.9 96.1 3.9 69.1 3.9 57.2 39.8 57.2 39.8 61.1 43.1 61.1 43.1 57.2 51.4 57.2 "/><polygon fill="#1A242C" points="48.2 54 43.1 48.9 43.1 54 48.2 54 "/></svg>