<svg xmlns="http://www.w3.org/2000/svg" viewBox="0 0 100 100"><title>Pinterest Logo</title><path d="M32 98.7c6.5-9.1 8.8-19.8 11.4-30.4 9.4 8.8 22.4 8.8 33 0 9.1-7.6 13-17.7 13.8-29.2 1.7-24.1-18.3-40.9-42.3-39C38.4 0.9 29.7 3.7 22.4 10.2 9.2 22 6.5 43.4 16.9 56.6c1.6 2 3.9 3.6 5.9 5.2 1.3 1 2.3 0.5 2.7-1.2 0.2-0.7 0.3-1.4 0.5-2 1.2-3.2 0.8-5.9-1-9.2 -8.3-15 1.3-34.3 18.4-37.7 6.3-1.2 12.5-1 18.4 1.7 7.9 3.5 12.6 9.7 13.8 18.1 1.4 9.7-0.1 18.9-6.3 26.8 -3.7 4.7-8.6 7.2-14.8 6.3 -5.2-0.8-8.5-5.6-7.2-10.7 1.2-4.9 2.9-9.7 4.1-14.6 0.6-2.5 1.1-5.3 0.9-7.8 -0.6-6.6-7-9.5-12.6-6 -3.8 2.4-5.9 6.2-6.1 10.5 -0.2 3.6 0.5 7.2 0.9 10.9 0.1 1.2 0.4 2.5 0.1 3.6 -2.1 9.4-4.6 18.6-6.5 28 -0.9 4.5-0.7 9.3-0.9 13.9 -0.1 1.5-0.3 4 1.1 6.4C29.7 101.3 32 98.7 32 98.7"/></svg>