<svg xmlns="http://www.w3.org/2000/svg" viewBox="0 0 100 100"><title>Twitter Logo</title><path d="M97.2 10.9c-1.6 4.8-4.5 8.5-8.7 11.2 2-0.2 3.9-0.6 5.9-1.1 1.9-0.5 3.8-1.2 5.6-1.9 -0.1 0.1-0.1 0.2-0.2 0.3 -2.6 3.9-5.8 7.2-9.6 9.9 -0.2 0.2-0.3 0.4-0.3 0.7 0.1 2 0.1 4-0.1 6 -0.2 3.3-0.7 6.5-1.5 9.7 -2.1 8.7-5.9 16.6-11.5 23.6 -6.9 8.7-15.5 14.8-26 18.4 -3.2 1.1-6.4 1.8-9.8 2.3 -3.9 0.6-7.8 0.8-11.7 0.7C18.9 90.3 9.2 87.3 0.4 81.8c-0.1-0.1-0.2-0.1-0.3-0.2 0.2-0.1 0.4 0 0.6 0 1.6 0.2 3.2 0.2 4.8 0.2 9.1-0.2 17.2-3 24.5-8.5 0.1-0.1 0.1-0.1 0.2-0.2 0 0 0 0 0-0.1 -6-0.3-11.1-2.6-15.1-7.2 -1.8-2-3.8-5.7-3.9-7.1 3 0.6 6.1 0.5 9.1-0.4C14.5 57 10.1 53.9 7 49c-2.1-3.3-3.1-7-3.1-11.1 2.9 1.6 5.9 2.4 9.2 2.6C7.2 36.1 4.1 30.4 4.1 23.1c0-3.5 1-6.9 2.8-10 7.4 9 16.6 15.3 27.7 18.8 4.8 1.5 9.6 2.4 14.7 2.6 -0.1-0.3-0.1-0.6-0.2-0.9 -1.1-6.2 0.3-11.8 4.2-16.7 3.2-4 7.3-6.5 12.4-7.3 7-1.2 13.1 0.8 18.1 5.7 0.4 0.3 0.7 0.5 1.1 0.3 4.3-0.9 8.3-2.5 12-4.7C97 11 97.1 10.9 97.2 10.9"/></svg>