<svg width="86" height="86" viewBox="0 0 86 86" fill="none" xmlns="http://www.w3.org/2000/svg">
<path fill-rule="evenodd" clip-rule="evenodd" d="M5 0.5C2.51472 0.5 0.5 2.51472 0.5 5V81C0.5 83.4853 2.51472 85.5 5 85.5H81C83.4853 85.5 85.5 83.4853 85.5 81V5C85.5 2.51472 83.4853 0.5 81 0.5H5ZM3.5 5C3.5 4.17157 4.17157 3.5 5 3.5H81C81.8284 3.5 82.5 4.17157 82.5 5V81C82.5 81.8284 81.8284 82.5 81 82.5H5C4.17157 82.5 3.5 81.8284 3.5 81V5ZM66.8663 34H64.2638L62.8129 30.0157H56.4333L54.9824 34H52.449L58.1837 18.7997H61.1316L66.8663 34ZM57.1243 28.012H62.122L59.6346 20.9185L57.1243 28.012ZM19.0823 50.9122L28.1535 55.5162L37.2247 50.9122V60.4448C37.2247 60.7536 37.2092 61.0588 37.1787 61.3596H39.3072V63.379H36.7346C35.5099 66.9249 32.1272 69.4689 28.1535 69.4689C24.1798 69.4689 20.7971 66.9249 19.5724 63.379H17V61.3596H19.1283C19.0979 61.0588 19.0823 60.7536 19.0823 60.4448V50.9122ZM35.1457 61.3596H32.2395V63.379H34.5586C33.4418 65.7802 30.9965 67.4495 28.1535 67.4495C25.3105 67.4495 22.8652 65.7802 21.7485 63.379H24.0676V61.3596H21.1613C21.1219 61.0602 21.1016 60.7548 21.1016 60.4448V54.2017L28.1535 57.7808L35.2054 54.2017V60.4448C35.2054 60.7548 35.1851 61.0602 35.1457 61.3596ZM66.1346 61.6986V52.3251H63.6703V61.3992C63.6703 62.8271 63.3632 63.8866 62.749 64.5775C62.1349 65.2684 61.1906 65.6139 59.9162 65.6139C58.6572 65.6139 57.7206 65.2684 57.1065 64.5775C56.4923 63.8866 56.1852 62.8271 56.1852 61.3992V52.3251H53.7209V61.6986C53.7209 63.71 54.2507 65.2224 55.3101 66.2357C56.3848 67.2491 57.9202 67.7557 59.9162 67.7557C61.943 67.7557 63.486 67.2491 64.5454 66.2357C65.6049 65.2224 66.1346 63.71 66.1346 61.6986ZM33.2766 18.7997L27.5265 25.0192L33.4148 34H30.5129L25.7413 26.6715L23.2813 29.3186V34H20.817V18.7997H23.2813V26.3661L30.2596 18.7997H33.2766ZM37.0766 30.8909C37.5986 30.8909 38.0131 31.0444 38.3202 31.3515C38.6427 31.6432 38.8039 32.0424 38.8039 32.5491C38.8039 33.0558 38.6427 33.4627 38.3202 33.7697C38.0131 34.0768 37.5986 34.2304 37.0766 34.2304C36.5392 34.2304 36.1093 34.0768 35.7868 33.7697C35.4797 33.4627 35.3262 33.0558 35.3262 32.5491C35.3262 32.0424 35.4797 31.6432 35.7868 31.3515C36.1093 31.0444 36.5392 30.8909 37.0766 30.8909Z" fill="#1D5181"/>
</svg>
